<svg xmlns="http://www.w3.org/2000/svg" xmlns:xlink="http://www.w3.org/1999/xlink" width="1080" zoomAndPan="magnify" viewBox="0 0 810 809.999993" height="1080" preserveAspectRatio="xMidYMid meet" version="1.0"><rect x="-81" width="972" fill="#ffffff" y="-80.999999" height="971.999992" fill-opacity="1"/><rect x="-81" width="972" fill="#ffffff" y="-80.999999" height="971.999992" fill-opacity="1"/><path fill="#364548" d="M 420.226562 310.828125 L 500.945312 310.828125 L 500.945312 393.332031 L 541.765625 393.332031 C 560.628906 393.332031 554.570312 420.8125 572.414062 414.757812 C 581.171875 411.796875 591.015625 407.648438 599.671875 402.449219 C 588.28125 387.574219 582.453125 368.816406 580.742188 350.289062 C 578.40625 325.109375 583.507812 292.332031 600.527344 272.621094 L 609.023438 262.8125 L 619.128906 270.941406 C 644.574219 291.378906 666.007812 319.945312 669.757812 352.523438 C 700.40625 343.507812 736.390625 345.648438 763.417969 361.246094 L 774.511719 367.632812 L 768.683594 379.019531 C 745.835938 423.609375 698.070312 437.402344 651.355469 434.964844 C 581.46875 608.992188 454.757812 660.53125 270.273438 660.53125 C 174.96875 660.53125 87.5 624.921875 37.726562 540.375 L 36.902344 538.992188 L 29.628906 524.25 C 12.804688 487.027344 7.210938 446.285156 10.996094 405.542969 L 12.148438 393.332031 L 81.179688 393.332031 L 81.179688 310.828125 L 161.902344 310.828125 L 161.902344 230.132812 L 323.339844 230.132812 L 323.339844 149.4375 L 420.226562 149.4375 Z M 420.226562 310.828125 " fill-opacity="1" fill-rule="nonzero"/><path fill="#22a0c8" d="M 656.292969 372.207031 C 661.695312 330.144531 630.222656 297.136719 610.699219 281.4375 C 588.214844 307.4375 584.695312 375.59375 620.015625 404.292969 C 600.332031 421.769531 584.265625 406.792969 541.765625 406.792969 L 24.425781 406.792969 C 20.3125 451.15625 28.082031 492 45.859375 526.949219 L 51.75 537.710938 C 55.46875 544.03125 59.550781 550.152344 63.929688 556.007812 C 85.195312 557.390625 104.816406 557.851562 122.757812 557.457031 C 158.015625 556.667969 186.789062 552.519531 208.582031 544.949219 C 211.875 543.929688 215.332031 545.773438 216.351562 549.03125 C 217.339844 552.160156 215.691406 555.515625 212.628906 556.667969 C 209.734375 557.6875 206.707031 558.609375 203.578125 559.496094 C 186.425781 564.402344 167.992188 567.691406 144.253906 569.171875 C 145.671875 569.207031 142.773438 569.371094 142.773438 569.371094 C 141.953125 569.4375 140.929688 569.535156 140.140625 569.566406 C 130.792969 570.09375 120.71875 570.191406 110.382812 570.191406 C 99.089844 570.191406 87.996094 569.996094 75.550781 569.335938 L 75.222656 569.535156 C 118.316406 617.980469 185.734375 647.003906 270.207031 647.003906 C 448.996094 647.003906 575.210938 598.628906 642.371094 420.714844 C 690.003906 425.617188 735.796875 413.441406 756.636719 372.796875 C 723.515625 353.742188 680.851562 359.863281 656.292969 372.207031 Z M 656.292969 372.207031 " fill-opacity="1" fill-rule="nonzero"/><path fill="#37b1d9" d="M 656.292969 372.207031 C 661.695312 330.144531 630.222656 297.136719 610.699219 281.4375 C 588.214844 307.4375 584.695312 375.59375 620.015625 404.292969 C 600.332031 421.769531 584.265625 406.792969 541.765625 406.792969 L 55.042969 406.792969 C 52.933594 474.71875 78.152344 526.257812 122.757812 557.457031 C 158.015625 556.667969 186.789062 552.519531 208.582031 544.949219 C 211.875 543.929688 215.332031 545.773438 216.351562 549.03125 C 217.339844 552.15625 215.691406 555.515625 212.628906 556.667969 C 209.734375 557.6875 206.707031 558.609375 203.578125 559.496094 C 186.425781 564.402344 166.410156 568.121094 142.675781 569.566406 L 142.082031 569.007812 C 202.917969 600.207031 291.179688 600.109375 392.308594 561.242188 C 505.71875 517.667969 585.847656 465.539062 659.488281 370.59375 C 658.433594 371.152344 657.347656 371.679688 656.292969 372.207031 Z M 656.292969 372.207031 " fill-opacity="1" fill-rule="nonzero"/><path fill="#1b81a5" d="M 25.382812 460.667969 C 28.609375 484.429688 35.554688 506.675781 45.859375 526.917969 L 51.75 537.675781 C 55.46875 543.996094 59.550781 550.117188 63.929688 555.976562 C 85.195312 557.359375 104.816406 557.820312 122.757812 557.421875 C 158.015625 556.632812 186.789062 552.488281 208.582031 544.917969 C 211.875 543.898438 215.332031 545.742188 216.351562 549 C 217.339844 552.125 215.691406 555.480469 212.628906 556.632812 C 209.734375 557.652344 206.707031 558.574219 203.578125 559.464844 C 186.425781 564.367188 166.511719 567.890625 142.773438 569.335938 C 141.953125 569.402344 140.535156 569.402344 139.710938 569.4375 C 130.363281 569.960938 120.390625 570.292969 110.050781 570.292969 C 98.761719 570.292969 87.238281 570.0625 74.828125 569.4375 C 117.917969 617.878906 185.734375 647.039062 270.242188 647.039062 C 423.320312 647.039062 556.480469 588.953125 633.777344 460.636719 L 25.382812 460.636719 Z M 25.382812 460.667969 " fill-opacity="1" fill-rule="nonzero"/><path fill="#1d91b4" d="M 59.71875 460.667969 C 68.867188 502.398438 90.859375 535.144531 122.792969 557.421875 C 158.050781 556.632812 186.820312 552.488281 208.613281 544.917969 C 211.90625 543.898438 215.363281 545.742188 216.382812 549 C 217.371094 552.125 215.726562 555.480469 212.664062 556.632812 C 209.765625 557.652344 206.738281 558.574219 203.609375 559.464844 C 186.460938 564.367188 166.148438 567.890625 142.378906 569.335938 C 203.214844 600.535156 291.210938 600.074219 392.339844 561.242188 C 453.539062 537.742188 512.433594 502.761719 565.269531 460.601562 L 59.71875 460.601562 Z M 59.71875 460.667969 " fill-opacity="1" fill-rule="nonzero"/><path fill="#23a3c2" d="M 94.644531 324.289062 L 164.601562 324.289062 L 164.601562 394.222656 L 94.644531 394.222656 Z M 100.472656 330.113281 L 106.003906 330.113281 L 106.003906 388.398438 L 100.472656 388.398438 Z M 110.84375 330.113281 L 116.570312 330.113281 L 116.570312 388.398438 L 110.84375 388.398438 Z M 121.441406 330.113281 L 127.171875 330.113281 L 127.171875 388.398438 L 121.441406 388.398438 Z M 132.042969 330.113281 L 137.769531 330.113281 L 137.769531 388.398438 L 132.042969 388.398438 Z M 142.644531 330.113281 L 148.371094 330.113281 L 148.371094 388.398438 L 142.644531 388.398438 Z M 153.242188 330.113281 L 158.773438 330.113281 L 158.773438 388.398438 L 153.242188 388.398438 Z M 175.367188 243.59375 L 245.320312 243.59375 L 245.320312 313.527344 L 175.332031 313.527344 Z M 181.191406 249.417969 L 186.722656 249.417969 L 186.722656 307.703125 L 181.191406 307.703125 Z M 191.5625 249.417969 L 197.289062 249.417969 L 197.289062 307.703125 L 191.5625 307.703125 Z M 202.164062 249.417969 L 207.890625 249.417969 L 207.890625 307.703125 L 202.164062 307.703125 Z M 212.761719 249.417969 L 218.492188 249.417969 L 218.492188 307.703125 L 212.761719 307.703125 Z M 223.363281 249.417969 L 229.089844 249.417969 L 229.089844 307.703125 L 223.363281 307.703125 Z M 233.964844 249.417969 L 239.492188 249.417969 L 239.492188 307.703125 L 233.964844 307.703125 Z M 233.964844 249.417969 " fill-opacity="1" fill-rule="nonzero"/><path fill="#34bbde" d="M 175.367188 324.289062 L 245.320312 324.289062 L 245.320312 394.222656 L 175.332031 394.222656 Z M 181.191406 330.113281 L 186.722656 330.113281 L 186.722656 388.398438 L 181.191406 388.398438 Z M 191.5625 330.113281 L 197.289062 330.113281 L 197.289062 388.398438 L 191.5625 388.398438 Z M 202.164062 330.113281 L 207.890625 330.113281 L 207.890625 388.398438 L 202.164062 388.398438 Z M 212.761719 330.113281 L 218.492188 330.113281 L 218.492188 388.398438 L 212.761719 388.398438 Z M 223.363281 330.113281 L 229.089844 330.113281 L 229.089844 388.398438 L 223.363281 388.398438 Z M 233.964844 330.113281 L 239.492188 330.113281 L 239.492188 388.398438 L 233.964844 388.398438 Z M 233.964844 330.113281 " fill-opacity="1" fill-rule="nonzero"/><path fill="#23a3c2" d="M 256.085938 324.289062 L 326.039062 324.289062 L 326.039062 394.222656 L 256.085938 394.222656 Z M 261.914062 330.113281 L 267.441406 330.113281 L 267.441406 388.398438 L 261.914062 388.398438 Z M 272.28125 330.113281 L 278.011719 330.113281 L 278.011719 388.398438 L 272.28125 388.398438 Z M 282.882812 330.113281 L 288.609375 330.113281 L 288.609375 388.398438 L 282.882812 388.398438 Z M 293.484375 330.113281 L 299.210938 330.113281 L 299.210938 388.398438 L 293.484375 388.398438 Z M 304.082031 330.113281 L 309.84375 330.113281 L 309.84375 388.398438 L 304.082031 388.398438 Z M 314.683594 330.113281 L 320.214844 330.113281 L 320.214844 388.398438 L 314.683594 388.398438 Z M 314.683594 330.113281 " fill-opacity="1" fill-rule="nonzero"/><path fill="#34bbde" d="M 256.085938 243.59375 L 326.039062 243.59375 L 326.039062 313.527344 L 256.085938 313.527344 Z M 261.914062 249.417969 L 267.441406 249.417969 L 267.441406 307.703125 L 261.914062 307.703125 Z M 272.28125 249.417969 L 278.011719 249.417969 L 278.011719 307.703125 L 272.28125 307.703125 Z M 282.882812 249.417969 L 288.609375 249.417969 L 288.609375 307.703125 L 282.882812 307.703125 Z M 293.484375 249.417969 L 299.210938 249.417969 L 299.210938 307.703125 L 293.484375 307.703125 Z M 304.082031 249.417969 L 309.84375 249.417969 L 309.84375 307.703125 L 304.082031 307.703125 Z M 314.683594 249.417969 L 320.214844 249.417969 L 320.214844 307.703125 L 314.683594 307.703125 Z M 336.804688 324.289062 L 406.761719 324.289062 L 406.761719 394.222656 L 336.804688 394.222656 Z M 342.632812 330.113281 L 348.164062 330.113281 L 348.164062 388.398438 L 342.632812 388.398438 Z M 353.003906 330.113281 L 358.730469 330.113281 L 358.730469 388.398438 L 353.003906 388.398438 Z M 363.601562 330.113281 L 369.332031 330.113281 L 369.332031 388.398438 L 363.601562 388.398438 Z M 374.203125 330.113281 L 379.929688 330.113281 L 379.929688 388.398438 L 374.203125 388.398438 Z M 384.804688 330.113281 L 390.53125 330.113281 L 390.53125 388.398438 L 384.804688 388.398438 Z M 395.402344 330.113281 L 400.933594 330.113281 L 400.933594 388.398438 L 395.402344 388.398438 Z M 395.402344 330.113281 " fill-opacity="1" fill-rule="nonzero"/><path fill="#23a3c2" d="M 336.804688 243.59375 L 406.761719 243.59375 L 406.761719 313.527344 L 336.804688 313.527344 Z M 342.632812 249.417969 L 348.164062 249.417969 L 348.164062 307.703125 L 342.632812 307.703125 Z M 353.003906 249.417969 L 358.730469 249.417969 L 358.730469 307.703125 L 353.003906 307.703125 Z M 363.601562 249.417969 L 369.332031 249.417969 L 369.332031 307.703125 L 363.601562 307.703125 Z M 374.203125 249.417969 L 379.929688 249.417969 L 379.929688 307.703125 L 374.203125 307.703125 Z M 384.804688 249.417969 L 390.53125 249.417969 L 390.53125 307.703125 L 384.804688 307.703125 Z M 395.402344 249.417969 L 400.933594 249.417969 L 400.933594 307.703125 L 395.402344 307.703125 Z M 395.402344 249.417969 " fill-opacity="1" fill-rule="nonzero"/><path fill="#34bbde" d="M 336.804688 162.898438 L 406.761719 162.898438 L 406.761719 232.832031 L 336.804688 232.832031 Z M 342.632812 168.722656 L 348.164062 168.722656 L 348.164062 227.007812 L 342.632812 227.007812 Z M 353.003906 168.722656 L 358.730469 168.722656 L 358.730469 227.007812 L 353.003906 227.007812 Z M 363.601562 168.722656 L 369.332031 168.722656 L 369.332031 227.007812 L 363.601562 227.007812 Z M 374.203125 168.722656 L 379.929688 168.722656 L 379.929688 227.007812 L 374.203125 227.007812 Z M 384.804688 168.722656 L 390.53125 168.722656 L 390.53125 227.007812 L 384.804688 227.007812 Z M 395.402344 168.722656 L 400.933594 168.722656 L 400.933594 227.007812 L 395.402344 227.007812 Z M 395.402344 168.722656 " fill-opacity="1" fill-rule="nonzero"/><path fill="#23a3c2" d="M 444.652344 324.289062 L 514.605469 324.289062 L 514.605469 394.222656 L 444.652344 394.222656 Z M 450.476562 330.113281 L 456.007812 330.113281 L 456.007812 388.398438 L 450.476562 388.398438 Z M 460.847656 330.113281 L 466.578125 330.113281 L 466.578125 388.398438 L 460.847656 388.398438 Z M 471.449219 330.113281 L 477.175781 330.113281 L 477.175781 388.398438 L 471.449219 388.398438 Z M 482.046875 330.113281 L 487.777344 330.113281 L 487.777344 388.398438 L 482.046875 388.398438 Z M 492.648438 330.113281 L 498.378906 330.113281 L 498.378906 388.398438 L 492.648438 388.398438 Z M 503.25 330.113281 L 508.78125 330.113281 L 508.78125 388.398438 L 503.25 388.398438 Z M 503.25 330.113281 " fill-opacity="1" fill-rule="nonzero"/><path fill="#d3ecec" d="M 240.941406 507.628906 C 251.609375 507.5 260.363281 516.023438 260.496094 526.6875 C 260.628906 537.347656 252.101562 546.101562 241.4375 546.234375 C 241.269531 546.234375 241.074219 546.234375 240.910156 546.234375 C 230.242188 546.101562 221.714844 537.347656 221.882812 526.6875 C 222.046875 516.1875 230.472656 507.761719 240.941406 507.628906 Z M 240.941406 507.628906 " fill-opacity="1" fill-rule="nonzero"/><path fill="#364548" d="M 240.941406 513.09375 C 242.71875 513.09375 244.398438 513.421875 245.945312 514.015625 C 243.246094 515.59375 242.324219 519.019531 243.90625 521.714844 C 244.925781 523.460938 246.769531 524.511719 248.777344 524.511719 C 250.917969 524.511719 252.761719 523.328125 253.714844 521.585938 C 256.644531 528.628906 253.285156 536.722656 246.242188 539.652344 C 239.199219 542.582031 231.097656 539.222656 228.167969 532.183594 C 225.238281 525.140625 228.597656 517.042969 235.640625 514.113281 C 237.320312 513.457031 239.132812 513.09375 240.941406 513.09375 Z M 240.941406 513.09375 " fill-opacity="1" fill-rule="nonzero"/><path fill="#bdd9d7" d="M 292.230469 646.644531 C 244.429688 623.96875 218.195312 593.132812 203.609375 559.496094 C 185.867188 564.566406 164.5 567.789062 139.710938 569.207031 C 130.363281 569.730469 120.554688 569.996094 110.25 569.996094 C 98.363281 569.996094 85.824219 569.632812 72.6875 568.941406 C 116.535156 612.746094 170.460938 646.445312 270.308594 647.070312 C 277.648438 647.070312 284.957031 646.9375 292.230469 646.644531 Z M 292.230469 646.644531 " fill-opacity="1" fill-rule="nonzero"/><path fill="#d3ecec" d="M 221.355469 590.5625 C 214.738281 581.578125 208.316406 570.324219 203.609375 559.496094 C 185.867188 564.566406 164.5 567.824219 139.710938 569.207031 C 156.765625 578.453125 181.125 587.011719 221.355469 590.5625 Z M 221.355469 590.5625 " fill-opacity="1" fill-rule="nonzero"/><path fill="#000000" d="M 279.722656 701.175781 C 188.039062 701.175781 117.261719 672.378906 69.429688 615.542969 C 23.703125 561.175781 1.054688 477.519531 13.035156 407.320312 C 15.078125 395.472656 25.347656 386.785156 37.363281 386.785156 L 540.414062 386.785156 C 549.140625 387.113281 556.515625 386.09375 562.867188 384.777344 C 549.996094 343.113281 560.234375 295.0625 580.085938 264.917969 L 590.914062 248.59375 C 594.535156 243.132812 600.199219 239.347656 606.617188 238.03125 C 613.105469 236.714844 619.71875 238.0625 625.183594 241.683594 L 641.382812 252.476562 C 667.75 272.785156 685.132812 295.292969 693.988281 320.074219 C 722.367188 318.757812 754.5625 323.332031 773.6875 336.269531 L 788.996094 346.535156 C 799.234375 353.382812 802.820312 366.742188 797.457031 377.832031 L 795.777344 381.320312 C 793.042969 386.949219 789.0625 395.109375 787.21875 398.535156 C 758.378906 453.558594 706.496094 462.707031 676.015625 463.960938 C 606.386719 617.121094 466.3125 701.175781 279.722656 701.175781 Z M 59.453125 436.148438 C 56.65625 487.984375 74.695312 545.082031 107.253906 583.75 C 145.277344 628.90625 203.28125 651.777344 279.753906 651.777344 C 451.105469 651.777344 577.976562 573.023438 636.96875 429.996094 C 640.855469 420.617188 649.84375 414.691406 660.277344 414.726562 C 691.125 415.351562 724.835938 411.171875 743.433594 375.761719 C 732.339844 370.660156 704.589844 366.644531 679.867188 371.25 C 673.28125 372.566406 666.367188 370.988281 660.871094 367.039062 C 655.371094 363.089844 651.75 357.066406 650.828125 350.386719 C 648.164062 330.96875 637.496094 313.492188 618.304688 297.203125 C 604.9375 321.621094 600.757812 360.292969 617.1875 385.601562 C 620.9375 391.359375 622.089844 398.46875 620.410156 405.148438 C 618.734375 411.828125 614.289062 417.488281 608.230469 420.78125 C 599.308594 425.617188 575.277344 437.039062 540.054688 436.183594 L 59.453125 436.183594 Z M 59.453125 436.148438 " fill-opacity="1" fill-rule="nonzero"/><path fill="#000000" d="M 533.734375 435.953125 L 66.792969 435.953125 C 53.164062 435.953125 42.105469 424.894531 42.105469 411.269531 L 42.105469 318.660156 C 42.105469 305.035156 53.164062 293.976562 66.792969 293.976562 L 533.734375 293.976562 C 547.363281 293.976562 558.421875 305.035156 558.421875 318.660156 L 558.421875 411.269531 C 558.421875 424.894531 547.363281 435.953125 533.734375 435.953125 Z M 91.484375 386.585938 L 509.042969 386.585938 L 509.042969 343.34375 L 91.484375 343.34375 Z M 91.484375 386.585938 " fill-opacity="1" fill-rule="nonzero"/><path fill="#000000" d="M 437.113281 343.34375 L 147.285156 343.34375 C 133.65625 343.34375 122.59375 332.285156 122.59375 318.660156 L 122.59375 226.085938 C 122.59375 212.460938 133.65625 201.402344 147.285156 201.402344 L 437.113281 201.402344 C 450.742188 201.402344 461.804688 212.460938 461.804688 226.085938 L 461.804688 318.660156 C 461.804688 332.316406 450.742188 343.34375 437.113281 343.34375 Z M 171.972656 293.976562 L 412.421875 293.976562 L 412.421875 250.765625 L 171.972656 250.765625 Z M 171.972656 293.976562 " fill-opacity="1" fill-rule="nonzero"/><path fill="#000000" d="M 437.113281 435.953125 L 340.492188 435.953125 C 326.863281 435.953125 315.800781 424.894531 315.800781 411.269531 L 315.800781 133.476562 C 315.800781 119.851562 326.863281 108.792969 340.492188 108.792969 L 437.113281 108.792969 C 450.742188 108.792969 461.804688 119.851562 461.804688 133.476562 L 461.804688 411.269531 C 461.804688 424.894531 450.742188 435.953125 437.113281 435.953125 Z M 365.183594 386.585938 L 412.421875 386.585938 L 412.421875 158.15625 L 365.183594 158.15625 Z M 365.183594 386.585938 " fill-opacity="1" fill-rule="nonzero"/><path fill="#000000" d="M 340.492188 435.953125 L 243.90625 435.953125 C 230.277344 435.953125 219.214844 424.894531 219.214844 411.269531 L 219.214844 226.085938 C 219.214844 212.460938 230.277344 201.402344 243.90625 201.402344 L 340.523438 201.402344 C 354.152344 201.402344 365.214844 212.460938 365.214844 226.085938 L 365.214844 411.269531 C 365.183594 424.894531 354.152344 435.953125 340.492188 435.953125 Z M 268.59375 386.585938 L 315.835938 386.585938 L 315.835938 250.765625 L 268.59375 250.765625 Z M 268.59375 386.585938 " fill-opacity="1" fill-rule="nonzero"/><path fill="#000000" d="M 243.90625 435.953125 L 147.285156 435.953125 C 133.65625 435.953125 122.59375 424.894531 122.59375 411.269531 L 122.59375 318.660156 C 122.59375 305.035156 133.65625 293.976562 147.285156 293.976562 L 243.90625 293.976562 C 257.535156 293.976562 268.59375 305.035156 268.59375 318.660156 L 268.59375 411.269531 C 268.59375 424.894531 257.535156 435.953125 243.90625 435.953125 Z M 171.972656 386.585938 L 219.214844 386.585938 L 219.214844 343.34375 L 171.972656 343.34375 Z M 171.972656 386.585938 " fill-opacity="1" fill-rule="nonzero"/></svg>