<svg xmlns="http://www.w3.org/2000/svg" xmlns:xlink="http://www.w3.org/1999/xlink" width="1080" zoomAndPan="magnify" viewBox="0 0 810 809.999993" height="1080" preserveAspectRatio="xMidYMid meet" version="1.0"><defs><clipPath id="a02f87cd70"><path d="M 5 228.273438 L 803 228.273438 L 803 581.523438 L 5 581.523438 Z M 5 228.273438 " clip-rule="nonzero"/></clipPath></defs><rect x="-81" width="972" fill="#ffffff" y="-80.999999" height="971.999992" fill-opacity="1"/><rect x="-81" width="972" fill="#ffffff" y="-80.999999" height="971.999992" fill-opacity="1"/><path fill="#f2f2f2" d="M 509.042969 249.976562 L 495.527344 260.675781 L 472.953125 277.117188 C 467.972656 280.226562 464.453125 284.269531 465.074219 286.160156 C 465.695312 288.050781 481.214844 293.625 499.636719 298.5 C 530.5 306.683594 590.636719 332.082031 587.214844 335.628906 C 586.402344 336.4375 568.257812 331.898438 546.890625 325.875 C 478.789062 306.285156 444.777344 302.304688 366.433594 304.484375 C 308.1875 306.101562 290.539062 307.941406 260.746094 315.765625 C 187.566406 334.992188 114.8125 374.574219 72.65625 418.09375 C 61.28125 429.847656 47.144531 442.5625 41.269531 446.292969 C 28.699219 449.277344 24.644531 446.890625 20.363281 444.652344 C 18.644531 443.59375 17.5 442.199219 16.839844 440.421875 C 15.410156 445.609375 13.828125 450.210938 12.136719 453.929688 C 14.039062 453.53125 15.996094 453.40625 18.011719 453.34375 C 24.40625 453.160156 30.917969 454.5 34.6875 456.167969 L 51.140625 468.269531 C 120.484375 519.46875 157.898438 537.429688 196.789062 538.050781 C 217.175781 538.386719 224.21875 536.746094 238.976562 528.0625 C 247.503906 523.050781 255.902344 516.59375 259.203125 512.675781 C 259.601562 512.199219 259.957031 511.691406 260.261719 511.144531 C 262.4375 507.265625 264.492188 506.109375 265.785156 506.792969 C 297.023438 498.769531 352.132812 507.515625 438.828125 538.050781 C 456.25 538.574219 482.484375 546.160156 517.480469 560.835938 C 522.585938 562.988281 524.078125 561.757812 524.078125 555.316406 C 524.078125 535.664062 547.015625 509.863281 567.101562 504.09375 L 567.101562 503.96875 C 601.699219 484.242188 644.261719 479.789062 681.847656 478.84375 L 680.203125 478.257812 L 696.882812 477.089844 C 721.773438 475.3125 743.625 485.300781 761.773438 506.941406 C 770.359375 517.105469 778.722656 525.386719 780.464844 525.386719 C 785.691406 525.386719 784.097656 502.351562 776.234375 464.875 C 770.359375 436.890625 769.351562 421.652344 771.179688 391.5625 C 772.613281 368.03125 772.078125 352.679688 769.773438 351.261719 C 767.734375 350.019531 752.625 352.195312 736.273438 356.078125 C 691.40625 366.722656 670.808594 369.175781 670.808594 363.949219 C 670.808594 363.675781 671.058594 363.304688 671.394531 362.894531 C 649.152344 370.566406 616.921875 358.949219 602.855469 345.503906 C 587.859375 331.175781 595.328125 310.675781 587.921875 295.578125 C 587.898438 300.304688 587.050781 300.242188 581.328125 295.328125 C 577.71875 292.21875 566.480469 287.390625 556.285156 284.632812 C 543.679688 281.222656 533.164062 274.980469 523.367188 264.890625 Z M 509.042969 249.976562 " fill-opacity="1" fill-rule="nonzero"/><path fill="#febc5b" d="M 315.792969 430.347656 L 311.085938 366.414062 C 309.816406 358.390625 310.414062 352.308594 312.332031 352.308594 C 315.976562 352.308594 325.808594 372.683594 330.464844 389.910156 C 331.859375 395.082031 335.605469 402.273438 338.804688 405.894531 C 344.03125 411.824219 343.96875 413.144531 338.355469 419.351562 C 334.933594 423.132812 332.132812 432.011719 332.105469 439.089844 C 332.082031 454.851562 325.363281 480.136719 321.207031 480.136719 C 319.523438 480.136719 317.035156 457.722656 315.679688 430.320312 Z M 364.503906 460.660156 C 363.65625 457.949219 362.074219 434.039062 360.980469 407.511719 C 359.3125 366.835938 359.824219 359.96875 364.191406 363.601562 C 367.054688 366.089844 370.5 373.28125 371.871094 379.859375 C 373.238281 386.4375 376.910156 395.832031 380.023438 400.753906 C 384.253906 407.421875 384.703125 411.703125 381.789062 417.671875 C 379.648438 422.074219 376.835938 433.667969 375.542969 443.445312 C 373.203125 461.105469 367.453125 470.113281 364.503906 460.683594 Z M 410.402344 411.703125 L 410.152344 363.714844 C 412.566406 360.890625 418.429688 371.738281 423.308594 388.042969 C 425.796875 396.316406 429.40625 404.175781 431.371094 405.519531 C 433.414062 406.925781 433.585938 410.929688 431.78125 414.921875 C 430.039062 418.753906 426.839844 429.351562 424.652344 438.492188 C 417.109375 469.863281 412.304688 460.820312 410.414062 411.703125 Z M 459.871094 432.226562 C 459.570312 418.324219 458.53125 404.480469 456.761719 390.691406 C 455.203125 379.746094 455.140625 370.046875 456.609375 369.113281 C 460.65625 366.625 466.742188 375.417969 469.714844 388.070312 C 471.171875 394.261719 475.964844 402.222656 480.371094 405.769531 L 488.359375 412.210938 L 479.894531 418.207031 C 475.203125 421.527344 471.433594 428.15625 471.433594 433.082031 C 471.433594 444.277344 467.699219 453.855469 463.503906 453.855469 C 461.664062 453.855469 460.019531 444.128906 459.871094 432.238281 Z M 505.246094 423.144531 C 505.222656 410.046875 504.128906 392.71875 502.785156 384.648438 C 499.546875 364.996094 506.054688 369.25 518.242188 394.699219 C 526.179688 411.292969 526.789062 414.972656 522.398438 419.886719 C 519.574219 423.058594 516.671875 429.75 515.976562 434.75 C 515.277344 439.75 512.578125 444.550781 510 445.398438 C 506.578125 446.515625 505.273438 440.484375 505.273438 423.007812 Z M 546.664062 407.933594 C 546.664062 376.390625 547.199219 373.8125 552.601562 379.199219 C 560.742188 387.335938 563.53125 412.535156 558.101562 428.953125 C 550.609375 451.628906 546.679688 444.378906 546.679688 407.90625 Z M 586.019531 414.339844 C 578.972656 408.816406 579.136719 408.617188 589.925781 409.585938 C 596.148438 410.148438 600.914062 412.261719 600.554688 414.277344 C 599.460938 420.394531 593.785156 420.421875 586.019531 414.339844 Z M 586.019531 414.339844 " fill-opacity="1" fill-rule="nonzero"/><g clip-path="url(#a02f87cd70)"><path fill="#000000" d="M 507.050781 228.472656 C 500.78125 228.472656 493.4375 231.082031 483.53125 235.871094 C 474.894531 240.039062 455.527344 247.8125 440.507812 253.160156 C 425.484375 258.511719 406.34375 266.59375 398.191406 271.261719 C 386.058594 278.074219 376.6875 279.964844 349.753906 280.300781 C 248.425781 282.042969 142.488281 316.746094 67.617188 372.769531 C 28.949219 401.699219 6.472656 436.03125 20.476562 444.664062 C 24.78125 446.902344 28.8125 449.304688 41.382812 446.304688 C 47.269531 442.574219 61.394531 429.863281 72.769531 418.105469 C 114.921875 374.574219 187.679688 335.019531 260.859375 315.777344 C 290.640625 307.941406 308.273438 306.125 366.542969 304.496094 C 444.875 302.304688 478.902344 306.285156 547.003906 325.890625 C 568.371094 332.035156 586.515625 336.460938 587.324219 335.640625 C 590.746094 332.21875 530.574219 306.695312 499.746094 298.511719 C 481.328125 293.625 465.808594 288.0625 465.1875 286.171875 C 464.5625 284.28125 468.074219 280.226562 473.0625 277.128906 C 478.054688 274.035156 488.210938 266.621094 495.640625 260.6875 L 509.15625 249.988281 L 523.617188 264.917969 C 533.410156 274.992188 543.929688 281.246094 556.535156 284.65625 C 566.742188 287.390625 577.941406 292.117188 581.574219 295.351562 C 587.351562 300.328125 588.171875 300.351562 588.171875 295.476562 C 588.171875 288.261719 574.855469 276.746094 557.492188 268.921875 C 549.925781 265.511719 540.617188 258.199219 536.808594 252.703125 C 525.136719 235.871094 517.644531 228.621094 507.1875 228.621094 Z M 784.136719 310.9375 C 770.769531 310.9375 670.808594 357.582031 670.808594 363.800781 C 670.808594 369.027344 691.417969 366.574219 736.273438 355.929688 C 752.625 352.046875 767.734375 349.832031 769.773438 351.113281 C 772.078125 352.53125 772.613281 367.882812 771.179688 391.414062 C 769.351562 421.515625 770.359375 436.726562 776.234375 464.726562 C 784.097656 502.191406 785.691406 525.238281 780.464844 525.238281 C 778.722656 525.238281 770.347656 516.957031 761.773438 506.792969 C 743.625 485.273438 721.785156 475.285156 696.882812 476.941406 L 680.203125 478.109375 L 705.007812 486.816406 C 732.328125 496.269531 740.890625 503.859375 765.195312 540.277344 C 774.15625 553.710938 783.265625 566.023438 785.417969 567.515625 C 791.105469 571.535156 793.507812 571.050781 798.699219 564.816406 C 800.914062 562.15625 801.910156 554.707031 801.871094 538.621094 C 802.246094 527.117188 801.832031 512.351562 800.703125 493.84375 L 799.878906 480.449219 C 797.414062 421.691406 797.640625 410.171875 800.464844 371.066406 C 803.925781 323.175781 800.589844 310.914062 784.125 310.914062 Z M 173.664062 382.832031 C 163.832031 382.457031 153.203125 387.992188 146.035156 398.925781 C 139.515625 408.878906 141.804688 417.585938 154.972656 432.535156 C 162.972656 441.691406 180.820312 438.195312 192.121094 425.371094 C 202.476562 413.617188 202.539062 410.132812 193.066406 394.585938 C 188.460938 387 181.332031 383.144531 173.652344 382.832031 Z M 162.378906 401.390625 C 166.609375 400.679688 175.40625 406.367188 177.3125 411.714844 C 179.550781 418.394531 163.199219 417.136719 160.632812 410.421875 C 159.414062 407.222656 159.601562 403.453125 160.984375 402.085938 C 161.355469 401.714844 161.902344 401.464844 162.515625 401.378906 Z M 18.011719 453.320312 C 15.910156 453.351562 13.832031 453.589844 11.773438 454.03125 C 11.527344 454.253906 11.316406 454.5 11.066406 454.738281 C 6.785156 456.394531 4.917969 460.285156 5.652344 466.367188 C 5.585938 467.644531 5.648438 468.910156 5.835938 470.175781 C 6.023438 471.4375 6.332031 472.667969 6.765625 473.867188 C 7.199219 475.070312 7.75 476.214844 8.410156 477.304688 C 9.074219 478.394531 9.839844 479.410156 10.703125 480.347656 C 28.976562 500.523438 122.402344 548.4375 156.589844 555.191406 C 179.277344 559.667969 190.253906 559.632812 211.472656 555.066406 C 232.90625 550.464844 258.941406 533.175781 265.199219 519.46875 C 270.078125 508.769531 265.699219 501.394531 260.261719 511.132812 C 258.269531 514.691406 248.734375 522.328125 239.101562 528.050781 C 224.332031 536.730469 217.285156 538.375 196.914062 538.039062 C 158.019531 537.390625 120.597656 519.441406 51.265625 468.257812 L 34.8125 456.15625 C 31.027344 454.488281 24.519531 453.144531 18.136719 453.332031 Z M 575.226562 502.789062 C 553.820312 502.414062 524.078125 532.949219 524.078125 555.300781 C 524.078125 561.746094 522.609375 562.976562 517.480469 560.824219 C 466.367188 539.367188 434.058594 533.0625 420.730469 541.792969 C 409.816406 548.945312 408.160156 561.445312 417.792969 564.234375 C 421.402344 565.277344 441.316406 568.125 462 570.453125 C 482.683594 572.777344 502.160156 576.347656 505.261719 578.089844 C 509.265625 580.328125 514.792969 581.324219 520.320312 581.148438 C 520.605469 581.160156 520.855469 581.148438 521.140625 581.148438 C 526.117188 581.125 530.261719 580.191406 533.125 578.214844 L 533.375 578.089844 C 534.496094 577.46875 535.488281 576.96875 536.3125 576.324219 C 540.867188 572.867188 542.90625 566.035156 542.90625 554.355469 C 542.90625 536.445312 548.632812 527.714844 571.121094 511.121094 C 580.378906 504.28125 581.140625 502.761719 575.226562 502.664062 Z M 575.226562 502.789062 " fill-opacity="1" fill-rule="nonzero"/></g><path fill="#71a0fe" d="M 178.09375 520.402344 L 164.929688 516.421875 L 188.363281 511.992188 C 219.390625 506.121094 227.007812 498.933594 227.007812 475.585938 C 227.007812 455.722656 230.863281 452.773438 239.949219 465.722656 C 253.042969 484.402344 243.992188 510.1875 220.984375 519.804688 C 206.519531 525.835938 196.589844 525.972656 178.09375 520.386719 Z M 695.203125 439.5 C 696.082031 434.589844 696.234375 429.65625 695.664062 424.703125 C 695.089844 419.746094 693.816406 414.976562 691.839844 410.394531 C 684.523438 392.894531 684.472656 393.453125 693.136719 393.453125 C 703.738281 393.453125 720.578125 414.972656 717.726562 424.898438 C 714.667969 435.558594 703.628906 450.84375 697.542969 452.886719 C 693.808594 454.128906 693.261719 450.945312 695.203125 439.5 Z M 559.921875 347.832031 C 485.558594 323.824219 354.011719 323.152344 265.335938 346.289062 C 247.230469 351.015625 243.160156 351.078125 238.804688 346.710938 C 231.335938 339.246094 244.851562 331.4375 281.777344 321.796875 C 354.0625 307.964844 530.761719 302.417969 591.890625 353.761719 C 591.890625 357.070312 584.125 355.628906 559.90625 347.816406 Z M 559.921875 347.832031 " fill-opacity="1" fill-rule="nonzero"/></svg>