<svg xmlns="http://www.w3.org/2000/svg" xmlns:xlink="http://www.w3.org/1999/xlink" width="1080" zoomAndPan="magnify" viewBox="0 0 810 809.999993" height="1080" preserveAspectRatio="xMidYMid meet" version="1.0"><rect x="-81" width="972" fill="#ffffff" y="-80.999999" height="971.999992" fill-opacity="1"/><rect x="-81" width="972" fill="#ffffff" y="-80.999999" height="971.999992" fill-opacity="1"/><path fill="#d33833" d="M 686.917969 389.09375 C 686.917969 548.746094 560.335938 678.292969 404.105469 678.292969 C 247.875 678.292969 121.292969 548.746094 121.292969 389.09375 C 121.292969 229.441406 247.875 99.898438 404.105469 99.898438 C 560.335938 99.898438 686.917969 229.441406 686.917969 389.09375 " fill-opacity="1" fill-rule="nonzero"/><path fill="#ef3d3a" d="M 132.925781 460.710938 C 132.925781 460.710938 112.398438 159.195312 390.421875 150.527344 L 371.035156 118.140625 L 220.277344 168.773438 L 177.171875 218.265625 L 139.539062 290.339844 L 118.101562 374.269531 L 124.484375 430.375 " fill-opacity="1" fill-rule="nonzero"/><path fill="#231f20" d="M 210.46875 191.808594 C 160.976562 242.671875 130.1875 312.691406 130.1875 390.234375 C 130.1875 467.78125 160.976562 537.800781 210.46875 588.660156 C 260.191406 639.519531 328.382812 670.765625 404.105469 670.765625 C 479.824219 670.765625 548.019531 639.519531 597.742188 588.660156 C 647.230469 537.800781 678.023438 467.78125 678.023438 390.234375 C 678.023438 312.691406 647.230469 242.671875 597.742188 191.808594 C 548.019531 141.179688 479.824219 109.703125 404.105469 109.703125 C 328.613281 109.703125 260.191406 140.949219 210.46875 191.808594 Z M 197.925781 600.746094 C 145.242188 546.921875 112.625 472.34375 112.625 390.234375 C 112.625 308.128906 145.242188 233.546875 197.925781 179.496094 C 250.609375 125.667969 323.59375 92.140625 404.105469 92.140625 C 484.617188 92.140625 557.597656 125.667969 610.285156 179.496094 C 662.96875 233.320312 695.585938 307.898438 695.585938 390.234375 C 695.585938 472.34375 662.96875 546.921875 610.285156 600.746094 C 557.597656 654.800781 484.617188 688.101562 404.105469 688.101562 C 323.59375 688.101562 250.609375 654.800781 197.925781 600.746094 Z M 197.925781 600.746094 " fill-opacity="1" fill-rule="nonzero"/><path fill="#f0d6b7" d="M 523.160156 390.691406 L 480.054688 397.078125 L 421.894531 403.691406 L 384.261719 404.605469 L 347.542969 403.464844 L 319.488281 394.796875 L 294.628906 367.882812 L 275.242188 312.917969 L 270.910156 301.058594 L 245.136719 292.390625 L 230.085938 267.53125 L 219.363281 231.953125 L 231.226562 200.707031 L 259.277344 190.898438 L 281.855469 201.617188 L 292.578125 225.335938 L 305.578125 223.285156 L 309.910156 217.8125 L 305.578125 192.949219 L 304.4375 161.703125 L 310.824219 118.597656 L 310.59375 93.964844 L 330.210938 62.492188 L 364.648438 37.632812 L 424.859375 11.859375 L 491.6875 21.667969 L 549.84375 63.632812 L 576.757812 106.738281 L 594.089844 137.984375 L 598.425781 215.53125 L 585.425781 282.355469 L 561.703125 341.65625 L 539.351562 373.359375 " fill-opacity="1" fill-rule="nonzero"/><path fill="#335061" d="M 486.667969 577.027344 L 332.71875 583.414062 L 332.71875 609.1875 L 345.71875 699.730469 L 339.332031 707.257812 L 231.679688 670.539062 L 224.15625 657.539062 L 213.433594 535.746094 L 188.117188 462.761719 L 182.644531 445.429688 L 268.855469 386.128906 L 295.769531 375.410156 L 319.488281 404.605469 L 340.015625 422.851562 L 363.734375 430.375 L 374.457031 433.570312 L 387.457031 489.675781 L 397.261719 501.535156 L 422.125 492.867188 L 404.789062 526.394531 L 498.300781 570.640625 L 486.667969 577.027344 " fill-opacity="1" fill-rule="nonzero"/><path fill="#6d6b6d" d="M 231.226562 201.160156 L 259.277344 191.355469 L 281.855469 202.074219 L 292.578125 225.792969 L 305.578125 223.742188 L 308.769531 210.742188 L 302.382812 185.878906 L 308.769531 126.582031 L 303.296875 94.195312 L 322.683594 71.617188 L 364.648438 38.316406 L 352.789062 22.125 L 293.488281 51.316406 L 268.628906 70.703125 L 254.714844 100.808594 L 233.277344 130.003906 L 226.890625 164.441406 L 231.226562 201.160156 " fill-opacity="1" fill-rule="nonzero"/><path fill="#dcd9d8" d="M 275.472656 99.898438 C 275.472656 99.898438 291.664062 59.984375 356.210938 40.597656 C 420.753906 21.210938 359.402344 26.683594 359.402344 26.683594 L 289.382812 53.597656 L 262.472656 80.511719 L 250.609375 101.949219 L 275.472656 99.898438 " fill-opacity="1" fill-rule="nonzero"/><path fill="#dcd9d8" d="M 243.085938 193.636719 C 243.085938 193.636719 220.503906 118.140625 306.71875 107.421875 L 303.523438 94.421875 L 244.226562 108.335938 L 226.890625 164.441406 L 231.226562 201.160156 L 243.085938 193.636719 " fill-opacity="1" fill-rule="nonzero"/><path fill="#f7e4cd" d="M 277.523438 293.757812 L 291.664062 280.074219 C 291.664062 280.074219 298.050781 280.757812 299.191406 288.285156 C 300.332031 295.8125 303.523438 363.777344 349.824219 400.269531 C 354.15625 403.691406 315.382812 394.796875 315.382812 394.796875 L 280.945312 340.972656 " fill-opacity="1" fill-rule="nonzero"/><path fill="#f7e4cd" d="M 475.71875 273.234375 C 475.71875 273.234375 478.230469 240.617188 487.125 243.128906 C 496.019531 245.636719 496.019531 254.53125 496.019531 254.53125 C 496.019531 254.53125 474.582031 268.214844 475.71875 273.234375 " fill-opacity="1" fill-rule="nonzero"/><path fill="#f7e4cd" d="M 565.125 153.722656 C 565.125 153.722656 547.335938 157.371094 545.738281 173.109375 C 544.144531 188.84375 565.125 176.300781 568.320312 175.160156 " fill-opacity="1" fill-rule="nonzero"/><path fill="#f7e4cd" d="M 434.894531 154.863281 C 434.894531 154.863281 411.175781 158.054688 411.175781 173.109375 C 411.175781 188.160156 438.089844 187.019531 445.613281 180.636719 " fill-opacity="1" fill-rule="nonzero"/><path fill="#f7e4cd" d="M 288.472656 224.882812 C 288.472656 224.882812 247.644531 200.019531 243.3125 223.742188 C 238.980469 247.460938 229.398438 264.566406 249.699219 289.425781 L 235.785156 285.09375 L 222.785156 251.792969 L 218.453125 219.40625 L 243.3125 193.636719 L 271.367188 195.6875 L 287.558594 208.6875 L 288.472656 224.882812 " fill-opacity="1" fill-rule="nonzero"/><path fill="#f7e4cd" d="M 307.859375 156.914062 C 307.859375 156.914062 326.105469 62.035156 418.703125 43.789062 C 494.878906 28.738281 535.019531 46.984375 550.074219 64.316406 C 550.074219 64.316406 482.105469 -16.421875 417.5625 8.210938 C 353.015625 33.070312 305.578125 78.230469 306.71875 107.195312 C 308.542969 156.914062 307.859375 156.914062 307.859375 156.914062 " fill-opacity="1" fill-rule="nonzero"/><path fill="#f7e4cd" d="M 557.597656 75.035156 C 557.597656 75.035156 526.351562 73.894531 525.210938 101.949219 C 525.210938 101.949219 525.210938 106.28125 527.265625 110.617188 C 527.265625 110.617188 552.125 82.5625 567.179688 97.617188 " fill-opacity="1" fill-rule="nonzero"/><path fill="#f7e4cd" d="M 420.984375 113.582031 C 420.984375 113.582031 415.507812 70.703125 379.015625 95.5625 C 355.296875 111.757812 357.578125 134.335938 361.683594 138.667969 C 366.015625 143.003906 364.875 151.667969 368.070312 145.738281 C 371.261719 139.808594 370.351562 120.421875 382.210938 114.949219 C 393.84375 109.476562 413.457031 103.546875 420.984375 113.582031 " fill-opacity="1" fill-rule="nonzero"/><path fill="#49728b" d="M 319.71875 404.605469 L 218.453125 449.761719 C 218.453125 449.761719 260.417969 616.710938 238.980469 668.484375 L 223.925781 663.011719 L 222.785156 599.378906 L 194.734375 478.957031 L 182.875 445.65625 L 288.472656 374.496094 L 319.71875 404.605469 " fill-opacity="1" fill-rule="nonzero"/><path fill="#49728b" d="M 329.980469 496.972656 L 344.351562 514.535156 L 344.351562 579.082031 L 327.246094 579.082031 C 327.246094 579.082031 325.191406 533.921875 325.191406 528.449219 C 325.191406 522.972656 327.246094 503.589844 327.246094 503.589844 " fill-opacity="1" fill-rule="nonzero"/><path fill="#49728b" d="M 330.4375 588.886719 L 281.855469 590.941406 L 295.769531 600.746094 L 330.210938 606.222656 " fill-opacity="1" fill-rule="nonzero"/><path fill="#335061" d="M 496.246094 578.167969 L 536.160156 577.027344 L 545.96875 676.011719 L 505.140625 681.484375 L 496.246094 578.167969 " fill-opacity="1" fill-rule="nonzero"/><path fill="#335061" d="M 506.964844 578.167969 L 567.179688 574.976562 C 567.179688 574.976562 592.039062 512.484375 592.039062 509.289062 C 592.039062 506.097656 613.476562 418.746094 613.476562 418.746094 L 564.898438 368.113281 L 555.089844 359.445312 L 529.316406 385.21875 L 529.316406 485.34375 L 506.964844 578.167969 " fill-opacity="1" fill-rule="nonzero"/><path fill="#49728b" d="M 533.878906 570.640625 L 496.246094 578.167969 L 501.722656 608.273438 C 515.632812 614.660156 539.351562 597.554688 539.351562 597.554688 " fill-opacity="1" fill-rule="nonzero"/><path fill="#49728b" d="M 535.019531 382.023438 L 610.511719 438.128906 L 612.566406 412.359375 L 555.546875 359.671875 L 535.019531 382.023438 " fill-opacity="1" fill-rule="nonzero"/><path fill="#ffffff" d="M 367.839844 790.277344 L 345.488281 699.730469 L 334.316406 632.90625 L 332.488281 583.414062 L 433.527344 577.941406 L 496.246094 577.941406 L 490.546875 691.066406 L 500.351562 778.417969 L 499.210938 794.609375 L 417.332031 800.996094 L 367.839844 790.277344 " fill-opacity="1" fill-rule="nonzero"/><path fill="#dcd9d8" d="M 482.335938 577.027344 C 482.335938 577.027344 476.859375 689.011719 493.054688 768.839844 C 493.054688 768.839844 460.667969 789.363281 413.457031 794.609375 L 504 791.417969 L 514.722656 785.03125 L 501.722656 608.503906 L 498.300781 570.640625 " fill-opacity="1" fill-rule="nonzero"/><path fill="#ffffff" d="M 547.5625 667.574219 L 589.53125 655.714844 L 669.128906 651.378906 L 680.988281 614.660156 L 659.546875 551.027344 L 634.6875 547.835938 L 600.25 558.554688 L 567.40625 574.746094 L 549.84375 571.554688 L 536.160156 577.027344 " fill-opacity="1" fill-rule="nonzero"/><path fill="#dcd9d8" d="M 546.878906 645.90625 C 546.878906 645.90625 574.933594 632.90625 579.265625 634.046875 L 567.40625 574.746094 L 581.320312 569.273438 C 581.320312 569.273438 591.125 625.378906 591.125 631.765625 C 591.125 631.765625 651.335938 634.957031 656.8125 634.957031 C 656.8125 634.957031 669.8125 610.097656 666.617188 584.328125 L 678.480469 618.765625 L 679.617188 638.152344 L 662.285156 663.925781 L 642.898438 668.257812 L 610.511719 667.117188 L 599.792969 653.203125 L 562.160156 658.679688 L 550.300781 663.011719 " fill-opacity="1" fill-rule="nonzero"/><path fill="#ffffff" d="M 504.457031 569.5 L 480.738281 509.289062 L 455.878906 473.710938 C 455.878906 473.710938 461.351562 458.65625 468.878906 458.65625 L 493.738281 458.65625 L 517.457031 467.324219 L 515.40625 507.238281 L 504.457031 569.5 " fill-opacity="1" fill-rule="nonzero"/><path fill="#dcd9d8" d="M 509.246094 548.976562 C 509.246094 548.976562 479.140625 490.816406 479.140625 482.148438 C 479.140625 482.148438 484.617188 469.148438 492.140625 472.34375 C 499.667969 475.535156 515.863281 484.203125 515.863281 484.203125 L 515.863281 463.675781 L 479.140625 456.148438 L 454.28125 459.339844 L 496.246094 558.78125 L 504.914062 559.921875 " fill-opacity="1" fill-rule="nonzero"/><path fill="#ffffff" d="M 377.421875 406.882812 L 347.542969 403.691406 L 319.488281 395.023438 L 319.488281 404.832031 L 333.175781 419.882812 L 376.28125 439.269531 " fill-opacity="1" fill-rule="nonzero"/><path fill="#dcd9d8" d="M 329.296875 410.078125 C 329.296875 410.078125 362.59375 423.988281 373.542969 420.796875 L 374.683594 433.796875 L 344.578125 427.410156 L 326.332031 414.410156 L 329.296875 410.078125 " fill-opacity="1" fill-rule="nonzero"/><path fill="#d33833" d="M 547.5625 462.304688 C 529.316406 461.851562 512.667969 459.570312 498.300781 455.464844 C 499.210938 449.535156 497.386719 443.832031 498.984375 439.5 C 503.089844 436.535156 509.703125 436.535156 515.863281 435.851562 C 510.617188 433.339844 503.089844 432.199219 497.160156 433.796875 C 496.929688 429.691406 495.105469 427.183594 493.964844 423.988281 C 504.230469 420.339844 528.40625 396.394531 542.089844 404.148438 C 548.703125 408.023438 551.441406 429.464844 551.898438 440.183594 C 552.351562 448.851562 550.984375 457.515625 547.5625 462.304688 " fill-opacity="1" fill-rule="nonzero"/><path stroke-linecap="butt" transform="matrix(2.298561, 0, 0, 2.298561, 110.573597, 0.00002)" fill-opacity="1" fill="#000000" fill-rule="nonzero" stroke-linejoin="miter" d="M 190.114116 201.127861 C 182.176066 200.930727 174.933083 199.938258 168.682569 198.152154 C 169.078537 195.572415 168.284902 193.091243 168.97997 191.206572 C 170.766074 189.916703 173.643214 189.916703 176.323219 189.619302 C 174.040881 188.526567 170.766074 188.030332 168.186335 188.7254 C 168.086068 186.939297 167.292433 185.848261 166.796199 184.458125 C 171.262308 182.870854 181.780098 172.453332 187.733211 175.826706 C 190.610351 177.512543 191.801653 186.840729 192.000487 191.503973 C 192.197621 195.275014 191.602819 199.044356 190.114116 201.127861 Z M 190.114116 201.127861 " stroke="#d33833" stroke-width="2" stroke-opacity="1" stroke-miterlimit="4"/><path fill="#d33833" d="M 460.210938 432.429688 C 460.210938 433.796875 460.210938 435.164062 459.984375 436.535156 C 454.28125 440.183594 445.160156 440.183594 438.773438 443.375 C 447.894531 443.832031 455.195312 446.113281 461.578125 449.078125 C 461.351562 452.5 461.351562 456.148438 461.125 459.570312 C 450.632812 466.640625 441.054688 477.359375 428.738281 484.203125 C 422.808594 487.394531 402.507812 495.605469 396.351562 494.007812 C 392.929688 493.097656 392.472656 488.761719 391.105469 484.65625 C 388.140625 475.992188 381.296875 461.851562 380.613281 448.621094 C 379.929688 431.972656 378.105469 403.917969 396.121094 407.339844 C 410.71875 410.078125 427.597656 416.691406 438.773438 422.851562 C 445.84375 426.953125 449.71875 431.515625 460.210938 432.429688 " fill-opacity="1" fill-rule="nonzero"/><path stroke-linecap="butt" transform="matrix(2.298561, 0, 0, 2.298561, 110.573597, 0.00002)" fill-opacity="1" fill="#000000" fill-rule="nonzero" stroke-linejoin="miter" d="M 152.1114 188.130599 C 152.1114 188.7254 152.1114 189.320202 152.012833 189.916703 C 149.531661 191.503973 145.563486 191.503973 142.784913 192.89241 C 146.753089 193.091243 149.929329 194.083712 152.706202 195.373581 C 152.607635 196.862285 152.607635 198.449555 152.509068 199.938258 C 147.944391 203.014231 143.777382 207.677475 138.41907 210.654881 C 135.839331 212.043318 127.007379 215.615525 124.329073 214.920457 C 122.84037 214.524489 122.641536 212.638119 122.046735 210.852015 C 120.756866 207.082673 117.779459 200.930727 117.482059 195.174748 C 117.184658 187.931765 116.391023 175.726439 124.228807 177.215142 C 130.579587 178.406445 137.922836 181.283584 142.784913 183.96359 C 145.860887 185.747994 147.546724 187.732932 152.1114 188.130599 Z M 152.1114 188.130599 " stroke="#d33833" stroke-width="2" stroke-opacity="1" stroke-miterlimit="4"/><path fill="#d33833" d="M 470.476562 452.269531 C 468.878906 443.148438 467.054688 440.640625 467.738281 432.65625 C 492.140625 416.464844 496.476562 460.480469 470.476562 452.269531 " fill-opacity="1" fill-rule="nonzero"/><path stroke-linecap="butt" transform="matrix(2.298561, 0, 0, 2.298561, 110.573597, 0.00002)" fill-opacity="1" fill="#000000" fill-rule="nonzero" stroke-linejoin="miter" d="M 156.57751 196.762018 C 155.882442 192.793842 155.088807 191.702807 155.386207 188.229166 C 166.002564 181.185017 167.888934 200.334226 156.57751 196.762018 Z M 156.57751 196.762018 " stroke="#d33833" stroke-width="2" stroke-opacity="1" stroke-miterlimit="4"/><path fill="#ef3d3a" d="M 505.597656 459.570312 C 505.597656 459.570312 498.070312 448.851562 503.546875 445.65625 C 509.019531 442.464844 514.265625 445.65625 517.457031 440.183594 C 520.652344 434.710938 517.457031 431.515625 518.597656 425.128906 C 519.738281 418.746094 524.984375 417.605469 530.457031 416.464844 C 535.933594 415.324219 550.984375 413.269531 553.039062 418.515625 L 546.652344 399.128906 L 533.652344 394.796875 L 492.824219 418.515625 L 490.773438 430.375 L 490.773438 454.097656 " fill-opacity="1" fill-rule="nonzero"/><path fill="#ef3d3a" d="M 392.472656 495.148438 C 391.105469 478.273438 389.738281 461.621094 388.367188 444.746094 C 386.085938 419.65625 394.296875 423.988281 416.191406 423.988281 C 419.613281 423.988281 436.71875 427.867188 437.859375 430.375 C 443.789062 442.464844 428.054688 439.726562 444.703125 448.851562 C 458.613281 456.375 483.476562 444.289062 477.773438 427.183594 C 474.582031 423.304688 461.351562 426.042969 456.5625 423.535156 C 448.125 419.199219 439.683594 414.867188 431.246094 410.535156 C 420.527344 405.058594 395.894531 396.847656 384.492188 404.605469 C 355.523438 424.21875 386.316406 473.480469 396.578125 494.007812 " fill-opacity="1" fill-rule="nonzero"/><path fill="#231f20" d="M 420.984375 113.582031 C 391.5625 106.738281 376.964844 125.898438 368.070312 145.738281 C 360.085938 143.914062 363.28125 132.96875 365.332031 127.492188 C 370.578125 113.125 391.789062 93.738281 409.121094 96.476562 C 416.421875 97.386719 426.457031 104.230469 420.984375 113.582031 " fill-opacity="1" fill-rule="nonzero"/><path fill="#231f20" d="M 563.984375 146.878906 L 565.355469 146.878906 C 571.96875 160.5625 577.667969 175.160156 586.109375 187.476562 C 580.40625 200.707031 543.6875 212.109375 544.144531 188.84375 C 552.125 185.425781 565.808594 188.160156 572.878906 183.601562 C 568.773438 172.425781 563.074219 162.84375 563.984375 146.878906 " fill-opacity="1" fill-rule="nonzero"/><path fill="#231f20" d="M 435.808594 147.335938 C 442.195312 158.96875 444.246094 171.054688 453.140625 179.722656 C 457.246094 183.601562 465 188.390625 461.125 199.335938 C 460.210938 201.847656 453.597656 207.546875 449.71875 208.6875 C 435.808594 212.792969 403.191406 209.601562 414.140625 192.039062 C 425.773438 192.496094 441.28125 199.566406 449.949219 191.125 C 443.332031 180.636719 431.472656 159.652344 435.808594 147.335938 " fill-opacity="1" fill-rule="nonzero"/><path fill="#231f20" d="M 558.738281 264.566406 C 537.757812 278.023438 514.265625 292.847656 479.597656 289.425781 C 472.300781 283.039062 469.335938 268.671875 476.632812 259.320312 C 480.28125 265.707031 478 277.566406 488.492188 279.390625 C 508.105469 282.8125 530.914062 267.304688 545.054688 262.058594 C 553.722656 247.234375 544.371094 241.988281 536.386719 232.40625 C 520.195312 213.019531 498.757812 188.84375 499.441406 159.878906 C 506.054688 155.089844 506.511719 167.179688 507.421875 169.230469 C 515.863281 188.84375 537.074219 214.160156 552.351562 231.039062 C 556.230469 235.144531 562.390625 239.25 563.074219 241.988281 C 565.125 249.742188 557.828125 259.320312 558.738281 264.566406 " fill-opacity="1" fill-rule="nonzero"/><path fill="#231f20" d="M 280.945312 250.425781 C 274.332031 246.546875 272.734375 230.128906 264.980469 229.671875 C 253.804688 228.988281 255.855469 251.109375 255.855469 264.109375 C 248.332031 257.269531 246.960938 235.828125 252.4375 224.882812 C 246.050781 221.6875 243.3125 228.300781 239.664062 230.582031 C 244.453125 197.511719 288.242188 215.300781 280.945312 250.425781 " fill-opacity="1" fill-rule="nonzero"/><path fill="#231f20" d="M 571.96875 278.480469 C 562.160156 297.179688 548.25 317.707031 519.511719 318.390625 C 518.828125 312.460938 518.371094 303.109375 519.511719 299.460938 C 541.632812 297.179688 555.320312 286.003906 571.96875 278.480469 " fill-opacity="1" fill-rule="nonzero"/><path fill="#231f20" d="M 434.210938 290.566406 C 452.457031 300.144531 486.210938 301.285156 511.300781 300.601562 C 512.667969 306.074219 512.667969 312.917969 512.667969 319.53125 C 480.511719 320.902344 442.648438 312.917969 434.210938 290.566406 " fill-opacity="1" fill-rule="nonzero"/><path fill="#231f20" d="M 430.789062 308.355469 C 443.5625 340.285156 487.125 336.636719 523.84375 335.726562 C 522.246094 339.832031 518.828125 344.847656 514.265625 346.445312 C 502.40625 351.234375 470.019531 354.882812 453.597656 346.214844 C 443.332031 340.742188 436.492188 328.199219 430.789062 320.902344 C 428.28125 317.480469 414.597656 308.585938 430.789062 308.355469 " fill-opacity="1" fill-rule="nonzero"/><path fill="#81b0c4" d="M 557.144531 484.203125 C 542.316406 509.746094 527.949219 535.972656 510.386719 558.324219 C 517.6875 536.660156 520.878906 500.167969 522.019531 472.34375 C 537.527344 465.042969 550.757812 473.9375 557.144531 484.203125 " fill-opacity="1" fill-rule="nonzero"/><path fill="#231f20" d="M 637.195312 575.886719 C 620.546875 579.308594 608.914062 595.5 592.496094 594.363281 C 601.617188 581.816406 617.125 576.34375 637.195312 575.886719 " fill-opacity="1" fill-rule="nonzero"/><path fill="#231f20" d="M 644.496094 601.886719 C 630.8125 603.257812 614.847656 605.539062 601.160156 604.398438 C 607.777344 594.363281 632.863281 598.011719 644.496094 601.886719 " fill-opacity="1" fill-rule="nonzero"/><path fill="#231f20" d="M 649.285156 624.46875 C 634.003906 624.695312 615.074219 624.46875 600.476562 623.328125 C 609.144531 613.976562 639.476562 619.90625 649.285156 624.46875 " fill-opacity="1" fill-rule="nonzero"/><path fill="#dcd9d8" d="M 528.40625 686.046875 C 530.6875 705.207031 538.210938 724.59375 537.300781 745.574219 C 528.863281 748.3125 524.074219 750.820312 512.667969 750.820312 C 511.984375 733.03125 509.476562 705.660156 510.160156 688.554688 C 515.632812 689.011719 523.84375 684.679688 528.40625 686.046875 " fill-opacity="1" fill-rule="nonzero"/><path fill="#f0d6b7" d="M 503.773438 403.234375 C 496.019531 408.253906 489.632812 414.410156 482.105469 419.882812 C 465.683594 420.796875 456.789062 418.746094 444.929688 409.394531 C 445.160156 408.710938 446.300781 408.9375 446.300781 408.023438 C 463.859375 415.78125 486.210938 404.832031 503.773438 403.234375 " fill-opacity="1" fill-rule="nonzero"/><path fill="#81b0c4" d="M 412.085938 522.519531 C 416.878906 501.761719 435.808594 490.816406 452.914062 479.414062 C 470.476562 501.761719 481.195312 530.5 493.054688 558.324219 C 465 549.886719 436.492188 536.429688 412.085938 522.519531 " fill-opacity="1" fill-rule="nonzero"/><path fill="#231f20" d="M 510.160156 688.785156 C 509.476562 705.890625 511.757812 733.03125 512.667969 751.046875 C 524.074219 751.046875 528.863281 748.539062 537.300781 745.804688 C 538.210938 724.820312 530.6875 705.433594 528.40625 686.277344 C 523.84375 684.679688 515.632812 689.011719 510.160156 688.785156 Z M 334.085938 592.082031 C 341.613281 660.730469 352.332031 718.207031 372.175781 779.101562 C 416.191406 792.558594 469.105469 793.699219 508.105469 781.609375 C 501.035156 747.398438 504 705.660156 499.894531 668.941406 C 496.703125 641.34375 498.300781 613.746094 493.964844 585.695312 C 446.753906 575.886719 380.15625 583.414062 334.085938 592.082031 Z M 505.140625 586.152344 C 504.6875 615.574219 506.511719 644.765625 508.792969 674.1875 C 520.195312 672.589844 527.722656 671.449219 538.210938 668.941406 C 534.792969 640.660156 535.246094 608.503906 528.175781 583.414062 C 520.195312 583.640625 513.125 583.414062 505.140625 586.152344 Z M 562.390625 581.363281 C 556.914062 580.222656 550.757812 581.363281 545.738281 581.363281 C 548.25 605.308594 553.949219 631.765625 556.003906 657.082031 C 563.984375 657.308594 568.320312 653.433594 574.933594 652.292969 C 575.390625 630.167969 573.109375 599.605469 562.390625 581.363281 Z M 649.285156 660.730469 C 666.164062 656.625 676.652344 636.097656 671.863281 614.886719 C 668.671875 600.746094 663.199219 573.835938 657.039062 564.710938 C 652.707031 558.097656 640.617188 549.203125 630.8125 555.359375 C 615.074219 565.394531 587.476562 568.359375 576.074219 580.449219 C 581.773438 599.605469 583.601562 625.609375 585.878906 649.785156 C 605.496094 650.925781 629.441406 644.308594 645.863281 651.378906 C 634.460938 655.03125 619.863281 655.03125 610.054688 660.503906 C 618.265625 664.378906 636.96875 663.695312 649.285156 660.730469 Z M 492.824219 558.324219 C 480.964844 530.5 470.246094 501.761719 452.683594 479.414062 C 435.578125 490.816406 416.878906 501.761719 411.859375 522.519531 C 436.492188 536.429688 465 549.886719 492.824219 558.324219 Z M 522.019531 472.34375 C 520.878906 500.167969 517.6875 536.660156 510.386719 558.324219 C 527.949219 535.746094 542.316406 509.746094 557.144531 484.203125 C 550.757812 473.9375 537.527344 465.042969 522.019531 472.34375 Z M 488.949219 460.710938 C 482.335938 460.027344 476.632812 468.464844 467.964844 464.816406 C 465.914062 467.097656 464.089844 469.375 462.035156 471.65625 C 481.195312 494.921875 490.089844 527.765625 504.914062 554.90625 C 512.898438 528.675781 511.984375 500.167969 513.808594 471.65625 C 502.863281 472.113281 496.703125 461.394531 488.949219 460.710938 Z M 467.738281 432.65625 C 467.054688 440.640625 468.878906 443.148438 470.476562 452.269531 C 496.476562 460.480469 492.140625 416.464844 467.738281 432.65625 Z M 438.773438 423.078125 C 427.597656 416.917969 410.71875 410.304688 396.121094 407.570312 C 378.105469 404.148438 379.929688 432.199219 380.613281 448.851562 C 381.296875 462.078125 388.140625 475.992188 391.105469 484.886719 C 392.472656 488.992188 392.929688 493.324219 396.351562 494.238281 C 402.507812 495.605469 423.035156 487.621094 428.738281 484.429688 C 441.054688 477.816406 450.632812 467.097656 461.125 459.796875 C 461.351562 456.375 461.351562 452.726562 461.578125 449.304688 C 455.195312 446.113281 448.125 444.0625 438.773438 443.605469 C 444.929688 440.410156 454.28125 440.410156 459.984375 436.761719 C 459.984375 435.394531 459.984375 434.023438 460.210938 432.65625 C 449.71875 431.515625 445.84375 426.953125 438.773438 423.078125 Z M 331.578125 403.691406 C 322.226562 413.269531 357.804688 426.042969 368.980469 426.726562 C 368.980469 420.796875 372.402344 415.09375 371.71875 410.761719 C 358.261719 408.480469 340.699219 410.078125 331.578125 403.691406 Z M 446.527344 408.023438 C 446.527344 408.9375 445.386719 408.710938 445.160156 409.394531 C 457.246094 418.746094 466.140625 420.796875 482.335938 419.882812 C 489.632812 414.640625 496.246094 408.253906 504 403.234375 C 486.210938 404.832031 463.859375 415.78125 446.527344 408.023438 Z M 551.898438 439.957031 C 551.441406 429.464844 548.703125 407.796875 542.089844 403.917969 C 528.40625 395.9375 504.230469 420.113281 493.964844 423.761719 C 495.105469 426.953125 496.929688 429.464844 497.160156 433.570312 C 503.316406 431.972656 510.617188 433.113281 515.863281 435.621094 C 509.703125 436.304688 503.089844 436.304688 498.984375 439.269531 C 497.617188 443.605469 499.441406 449.304688 498.300781 455.234375 C 512.667969 459.339844 529.316406 461.394531 547.5625 462.078125 C 550.984375 457.515625 552.351562 448.851562 551.898438 439.957031 Z M 315.839844 412.8125 C 312.875 410.761719 293.03125 384.988281 290.296875 386.128906 C 254.488281 400.269531 220.960938 424.675781 191.082031 447.9375 C 219.59375 509.289062 231.226562 584.328125 233.277344 656.625 C 265.890625 671.90625 294.628906 694.03125 339.105469 696.3125 C 333.859375 660.046875 329.296875 627.433594 326.332031 593.222656 C 315.15625 588.433594 299.191406 593.449219 288.699219 591.851562 C 288.699219 579.308594 304.664062 586.378906 306.035156 577.941406 C 306.945312 571.554688 297.136719 571.097656 300.332031 561.0625 C 308.542969 564.027344 312.875 570.640625 321.542969 573.152344 C 329.523438 555.816406 321.542969 525.027344 322.683594 510.429688 C 322.910156 507.691406 324.050781 495.378906 330.210938 497.429688 C 335.683594 499.253906 329.980469 530.5 330.4375 544.183594 C 330.894531 556.957031 328.839844 569.046875 334.085938 577.027344 C 376.964844 571.097656 420.527344 567.449219 467.054688 566.082031 C 456.789062 561.746094 444.703125 557.640625 431.472656 550.113281 C 424.175781 546.011719 401.597656 537.570312 399.542969 530.730469 C 396.121094 519.78125 408.210938 514.078125 410.261719 504.726562 C 388.597656 516.589844 384.492188 493.324219 379.246094 477.132812 C 374.683594 462.304688 371.945312 451.132812 370.804688 442.691406 C 351.875 433.113281 331.804688 424.21875 315.839844 412.8125 Z M 532.96875 389.09375 C 562.84375 374.726562 568.320312 443.148438 556.457031 465.273438 C 558.285156 471.886719 564.441406 474.394531 566.949219 480.324219 C 550.300781 510.203125 531.828125 538.027344 514.722656 567.449219 C 527.265625 559.464844 545.511719 566.082031 560.335938 560.152344 C 565.808594 558.097656 569.6875 545.554688 573.792969 535.519531 C 585.195312 508.148438 597.054688 473.480469 602.300781 447.480469 C 603.441406 441.550781 606.863281 428.550781 605.949219 423.304688 C 604.582031 413.726562 591.808594 406.65625 585.195312 400.953125 C 573.109375 390.007812 565.582031 380.65625 552.808594 370.394531 C 548.019531 377.917969 537.074219 382.9375 532.96875 389.09375 Z M 247.644531 124.300781 C 233.503906 140.039062 236.46875 169.230469 238.066406 190.214844 C 263.839844 174.019531 297.824219 191.582031 297.59375 218.953125 C 309.910156 218.722656 302.15625 203.671875 299.875 193.863281 C 292.578125 162.160156 312.191406 127.949219 300.789062 98.984375 C 278.664062 100.808594 260.644531 109.703125 247.644531 124.300781 Z M 349.367188 33.300781 C 317.207031 42.421875 275.925781 65.914062 262.699219 94.878906 C 272.960938 93.28125 280.03125 88.265625 290.066406 87.582031 C 293.945312 87.351562 298.964844 89.175781 303.296875 88.035156 C 311.964844 85.757812 319.488281 66.140625 326.105469 58.84375 C 332.488281 51.773438 340.246094 48.578125 345.488281 42.195312 C 348.910156 40.597656 353.929688 40.597656 354.15625 35.578125 C 352.789062 33.984375 351.191406 32.84375 349.367188 33.300781 Z M 517 41.964844 C 483.476562 23.035156 426.914062 8.894531 391.332031 26.683594 C 362.59375 41.054688 323.824219 64.773438 310.59375 94.652344 C 322.910156 123.617188 306.945312 150.074219 305.804688 179.496094 C 305.347656 195.230469 313.105469 208.6875 313.789062 225.792969 C 309.453125 232.863281 296.683594 233.546875 287.789062 233.09375 C 284.824219 218.039062 279.578125 201.160156 264.066406 199.335938 C 242.171875 196.828125 225.980469 215.074219 225.066406 234.003906 C 223.925781 256.355469 242.171875 293.304688 268.171875 290.792969 C 278.207031 289.882812 280.71875 279.847656 291.664062 279.847656 C 297.59375 291.707031 282.542969 295.355469 280.945312 303.796875 C 280.488281 306.074219 282.085938 314.515625 283.226562 318.621094 C 288.015625 338.007812 298.507812 363.324219 308.769531 378.148438 C 322 397.078125 347.769531 399.8125 375.597656 401.640625 C 380.613281 390.917969 398.859375 391.832031 410.71875 394.570312 C 396.351562 388.867188 383.121094 375.183594 372.175781 363.09375 C 359.628906 349.183594 346.859375 334.355469 346.175781 316.109375 C 370.121094 349.183594 389.738281 378.148438 433.070312 392.742188 C 465.914062 403.691406 504.230469 387.726562 529.546875 369.9375 C 540.039062 362.636719 546.195312 350.777344 553.722656 340.285156 C 581.546875 300.144531 594.546875 243.128906 591.808594 187.707031 C 590.671875 164.898438 590.671875 142.089844 582.914062 126.808594 C 574.933594 110.84375 547.792969 96.246094 531.828125 110.84375 C 528.863281 95.105469 545.054688 85.527344 563.984375 91.230469 C 550.527344 73.667969 536.386719 52.914062 517 41.964844 Z M 579.496094 557.640625 C 605.722656 544.640625 654.53125 522.746094 670.722656 557.640625 C 676.882812 570.640625 683.953125 592.308594 686.917969 605.765625 C 691.25 624.46875 682.128906 664.152344 662.742188 670.308594 C 645.636719 675.785156 625.792969 675.554688 605.265625 671.449219 C 602.757812 669.398438 600.25 665.976562 598.195312 662.328125 C 583.601562 661.871094 569.6875 663.011719 558.285156 669.171875 C 559.421875 680.117188 552.125 681.714844 545.054688 683.996094 C 540.039062 704.292969 555.320312 730.75 551.667969 748.996094 C 549.160156 762.222656 532.96875 764.277344 521.105469 766.558594 C 520.652344 773.855469 521.5625 780.015625 522.476562 786.171875 C 519.738281 796.207031 507.652344 801.910156 496.019531 803.277344 C 457.929688 807.839844 400.226562 809.890625 363.734375 796.664062 C 353.472656 771.574219 345.488281 741.242188 337.050781 712.730469 C 301.472656 716.609375 272.507812 697.449219 245.367188 684.679688 C 236.015625 680.34375 223.015625 677.835938 219.363281 670.308594 C 215.945312 663.011719 217.3125 649.097656 216.398438 636.097656 C 214.347656 602.574219 212.292969 570.1875 203.628906 535.972656 C 199.75 520.464844 192.679688 507.007812 187.890625 492.183594 C 183.328125 478.5 175.574219 461.394531 173.523438 447.710938 C 170.558594 427.410156 189.714844 426.269531 201.804688 417.375 C 220.734375 403.691406 235.558594 396.164062 256.085938 383.847656 C 262.242188 380.199219 280.488281 371.078125 282.542969 366.742188 C 286.648438 358.304688 275.472656 346.445312 272.507812 339.832031 C 267.714844 329.339844 265.207031 320.445312 264.523438 310.179688 C 247.417969 307.445312 234.191406 297.179688 226.433594 285.777344 C 213.433594 266.617188 204.3125 231.265625 215.714844 204.582031 C 216.628906 202.53125 220.960938 198.195312 221.644531 195.003906 C 223.015625 188.617188 219.136719 180.179688 218.910156 173.335938 C 217.769531 138.441406 224.839844 108.335938 248.332031 97.84375 C 257.910156 59.753906 292.121094 47.210938 324.277344 28.28125 C 336.367188 21.210938 349.59375 16.648438 363.28125 11.632812 C 412.316406 -6.386719 487.808594 -2.964844 528.632812 27.824219 C 545.96875 40.824219 573.5625 68.421875 583.371094 88.492188 C 609.601562 141.179688 607.546875 229.441406 589.300781 293.757812 C 586.792969 302.425781 583.371094 314.96875 578.355469 325.460938 C 574.933594 332.761719 564.214844 347.128906 565.355469 353.515625 C 566.722656 360.128906 589.984375 377.691406 595.003906 382.480469 C 603.898438 391.148438 621.003906 402.550781 622.371094 413.5 C 623.96875 425.128906 617.355469 441.09375 613.933594 452.269531 C 602.984375 489.675781 592.039062 524.113281 579.496094 557.640625 Z M 579.496094 557.640625 " fill-opacity="1" fill-rule="nonzero"/><path fill="#f7e4cd" d="M 405.015625 298.550781 C 406.386719 296.726562 414.140625 293.757812 425.089844 299.003906 C 425.089844 299.003906 412.085938 301.058594 413.226562 322.726562 L 407.753906 321.585938 C 407.984375 321.8125 402.28125 302.199219 405.015625 298.550781 " fill-opacity="1" fill-rule="nonzero"/><path fill="#1d1919" d="M 499.441406 483.746094 C 499.441406 486.9375 496.703125 489.675781 493.511719 489.675781 C 490.316406 489.675781 487.582031 486.9375 487.582031 483.746094 C 487.582031 480.550781 490.316406 477.816406 493.511719 477.816406 C 496.929688 477.816406 499.441406 480.550781 499.441406 483.746094 " fill-opacity="1" fill-rule="nonzero"/><path fill="#1d1919" d="M 505.371094 511.34375 C 505.371094 514.535156 502.632812 517.273438 499.441406 517.273438 C 496.246094 517.273438 493.511719 514.535156 493.511719 511.34375 C 493.511719 508.148438 496.246094 505.414062 499.441406 505.414062 C 502.863281 505.414062 505.371094 507.921875 505.371094 511.34375 " fill-opacity="1" fill-rule="nonzero"/></svg>