<svg xmlns="http://www.w3.org/2000/svg" xmlns:xlink="http://www.w3.org/1999/xlink" width="500" zoomAndPan="magnify" viewBox="0 0 375 374.999991" height="500" preserveAspectRatio="xMidYMid meet" version="1.0"><defs><clipPath id="7d3f96854b"><path d="M 92 83.296875 L 186 83.296875 L 186 157 L 92 157 Z M 92 83.296875 " clip-rule="nonzero"/></clipPath><clipPath id="ee04e2ea18"><path d="M 15 90 L 375 90 L 375 291.703125 L 15 291.703125 Z M 15 90 " clip-rule="nonzero"/></clipPath><clipPath id="dee5407629"><path d="M 230.757812 144.121094 L 317.757812 144.121094 L 317.757812 231 L 230.757812 231 Z M 230.757812 144.121094 " clip-rule="nonzero"/></clipPath></defs><rect x="-37.5" width="450" fill="#ffffff" y="-37.499999" height="449.999989" fill-opacity="1"/><rect x="-37.5" width="450" fill="#ffffff" y="-37.499999" height="449.999989" fill-opacity="1"/><g clip-path="url(#7d3f96854b)"><path fill="#070029" d="M 92.371094 110.761719 C 94.375 111.765625 96.132812 113.183594 97.46875 114.941406 L 110.511719 102.234375 C 111.847656 102.902344 113.269531 103.238281 114.855469 103.238281 C 115.359375 103.238281 115.945312 103.152344 116.445312 103.152344 L 127.8125 118.953125 C 125.976562 120.792969 124.886719 123.300781 124.886719 126.058594 C 124.886719 131.574219 129.320312 136.007812 134.835938 136.007812 C 137.34375 136.007812 139.683594 135.085938 141.441406 133.5 C 150.300781 138.847656 157.742188 146.203125 163.339844 154.898438 C 164.761719 157.15625 168.191406 156.738281 169.027344 154.230469 L 169.027344 154.144531 C 169.359375 153.226562 169.191406 152.140625 168.691406 151.304688 C 162.589844 141.773438 154.3125 133.75 144.617188 127.898438 C 144.617188 127.730469 144.699219 127.5625 144.699219 127.3125 L 161.921875 125.558594 C 161.417969 124.136719 161.167969 122.632812 161.167969 121.042969 C 161.167969 120.375 161.25 119.621094 161.335938 118.953125 L 143.277344 120.792969 C 141.523438 117.949219 138.347656 116.027344 134.753906 116.027344 C 134.417969 116.027344 134.082031 116.027344 133.832031 116.109375 L 122.214844 99.976562 C 122.714844 99.390625 123.214844 98.808594 123.550781 98.136719 C 139.097656 100.898438 153.726562 107.585938 166.101562 117.699219 C 165.683594 118.785156 165.515625 119.957031 165.515625 121.125 C 165.515625 126.644531 169.945312 131.074219 175.460938 131.074219 C 180.980469 131.074219 185.410156 126.644531 185.410156 121.125 C 185.410156 115.609375 180.980469 111.179688 175.460938 111.179688 C 173.539062 111.179688 171.699219 111.765625 170.195312 112.683594 C 157.324219 102.234375 141.773438 94.878906 124.722656 91.785156 C 123.96875 87.019531 119.871094 83.425781 114.855469 83.425781 C 109.339844 83.425781 104.910156 87.855469 104.910156 93.375 C 104.910156 94.878906 105.242188 96.382812 105.914062 97.636719 Z M 134.835938 120.375 C 137.929688 120.375 140.4375 122.882812 140.4375 125.976562 C 140.4375 129.066406 137.929688 131.574219 134.835938 131.574219 C 131.742188 131.574219 129.234375 129.066406 129.234375 125.976562 C 129.234375 122.882812 131.742188 120.375 134.835938 120.375 Z M 114.941406 87.6875 C 118.035156 87.6875 120.542969 90.195312 120.542969 93.289062 C 120.542969 96.382812 118.035156 98.890625 114.941406 98.890625 C 111.847656 98.890625 109.339844 96.382812 109.339844 93.289062 C 109.257812 90.195312 111.847656 87.6875 114.941406 87.6875 Z M 114.941406 87.6875 " fill-opacity="1" fill-rule="nonzero"/></g><path fill="#070029" d="M 6.351562 186.164062 C 6.269531 187.5 6.269531 188.921875 6.269531 190.257812 C 6.101562 219.851562 18.890625 246.601562 39.289062 265.160156 C 40.207031 263.152344 41.546875 261.398438 43.21875 260.058594 C 43.132812 259.976562 43.050781 259.890625 42.96875 259.808594 C 22.738281 241 11.871094 214.917969 12.875 187.25 C 12.875 187 12.875 186.746094 12.875 186.496094 C 16.96875 185.242188 19.980469 181.480469 19.980469 176.96875 C 19.980469 176.214844 19.894531 175.460938 19.726562 174.792969 L 38.203125 162.839844 C 40.042969 164.847656 42.632812 166.101562 45.558594 166.101562 C 51.074219 166.101562 55.507812 161.667969 55.507812 156.152344 C 55.507812 153.980469 54.835938 151.972656 53.667969 150.382812 C 60.1875 141.773438 68.796875 134.835938 78.660156 130.238281 C 80.5 132.328125 83.175781 133.664062 86.183594 133.664062 C 91.285156 133.664062 95.546875 129.820312 96.046875 124.804688 C 99.644531 124.21875 103.40625 123.886719 107.167969 123.96875 C 111.765625 123.96875 116.195312 124.46875 120.457031 125.390625 C 120.542969 123.132812 121.210938 121.042969 122.296875 119.121094 C 116.945312 117.949219 111.429688 117.363281 105.746094 117.449219 C 101.984375 117.53125 98.222656 117.867188 94.542969 118.453125 C 92.789062 115.609375 89.695312 113.769531 86.101562 113.769531 C 83.257812 113.769531 80.667969 114.941406 78.914062 116.863281 L 59.351562 114.019531 C 59.351562 114.4375 59.433594 114.855469 59.433594 115.273438 C 59.433594 117.113281 59.101562 118.871094 58.433594 120.542969 L 76.238281 123.132812 C 76.238281 123.300781 76.238281 123.550781 76.238281 123.71875 C 76.238281 123.886719 76.238281 124.050781 76.238281 124.136719 C 65.203125 129.234375 55.671875 137.007812 48.402344 146.539062 C 48.148438 146.457031 47.898438 146.371094 47.648438 146.371094 L 47.648438 124.886719 C 51.910156 123.800781 55.089844 119.871094 55.089844 115.273438 C 55.089844 114.273438 54.921875 113.351562 54.671875 112.433594 C 68.378906 103.238281 84.347656 97.886719 101.0625 96.882812 C 100.8125 95.796875 100.644531 94.628906 100.644531 93.375 C 100.644531 92.371094 100.730469 91.367188 100.980469 90.363281 C 82.757812 91.449219 65.621094 97.554688 51.160156 107.332031 C 49.488281 106.078125 47.398438 105.328125 45.140625 105.328125 C 39.625 105.328125 35.191406 109.757812 35.191406 115.273438 C 35.191406 116.863281 35.527344 118.285156 36.195312 119.621094 C 23.238281 132.496094 13.625 148.878906 9.113281 167.019531 C 4.011719 167.4375 0 171.699219 0 176.96875 C 0.0820312 181.0625 2.675781 184.65625 6.351562 186.164062 Z M 45.558594 150.46875 C 48.652344 150.46875 51.160156 152.976562 51.160156 156.070312 C 51.160156 159.160156 48.652344 161.667969 45.558594 161.667969 C 42.464844 161.667969 39.957031 159.160156 39.957031 156.070312 C 39.957031 152.976562 42.464844 150.46875 45.558594 150.46875 Z M 40.460938 123.96875 C 40.710938 124.050781 40.878906 124.21875 41.128906 124.304688 L 41.128906 147.207031 C 37.867188 148.878906 35.609375 152.222656 35.609375 156.070312 C 35.609375 156.234375 35.609375 156.402344 35.609375 156.570312 L 16.21875 169.109375 C 15.964844 168.859375 15.632812 168.691406 15.382812 168.523438 C 19.476562 151.722656 28.085938 136.257812 40.460938 123.96875 Z M 10.03125 171.199219 C 13.125 171.199219 15.632812 173.707031 15.632812 176.800781 C 15.632812 179.894531 13.125 182.402344 10.03125 182.402344 C 6.9375 182.402344 4.429688 179.894531 4.429688 176.800781 C 4.429688 173.707031 6.855469 171.199219 10.03125 171.199219 Z M 10.03125 171.199219 " fill-opacity="1" fill-rule="nonzero"/><g clip-path="url(#ee04e2ea18)"><path fill="#606cf5" d="M 34.523438 216.839844 C 34.273438 217.675781 34.191406 218.511719 34.191406 219.433594 C 34.191406 224.113281 37.367188 228.042969 41.714844 229.128906 L 46.058594 263.234375 C 43.71875 265.074219 42.296875 267.917969 42.296875 271.011719 C 42.296875 276.527344 46.730469 280.957031 52.246094 280.957031 C 54.585938 280.957031 56.675781 280.121094 58.347656 278.867188 C 72.726562 286.808594 89.277344 291.324219 106.832031 291.324219 C 117.867188 291.324219 128.484375 289.566406 138.347656 286.308594 C 140.1875 288.230469 142.695312 289.398438 145.535156 289.398438 C 151.054688 289.398438 155.484375 284.96875 155.484375 279.453125 C 155.484375 276.695312 154.398438 274.269531 152.640625 272.429688 L 163.175781 245.933594 C 166.351562 244.679688 168.691406 241.753906 169.277344 238.324219 L 189.507812 228.460938 C 188.085938 226.789062 187.164062 224.78125 186.664062 222.609375 L 168.023438 231.722656 C 167.9375 231.636719 167.9375 231.554688 167.855469 231.46875 C 174.042969 222.191406 178.222656 211.40625 179.640625 199.789062 C 180.3125 194.605469 184.742188 190.761719 189.925781 190.761719 C 196.195312 190.761719 200.957031 196.195312 200.207031 202.378906 C 199.871094 204.804688 199.539062 207.226562 199.035156 209.570312 C 194.1875 210.238281 190.507812 214.417969 190.507812 219.433594 C 190.507812 222.359375 191.761719 224.949219 193.769531 226.789062 C 189.089844 238.074219 182.234375 248.355469 173.371094 257.300781 C 168.273438 262.398438 162.671875 266.832031 156.738281 270.59375 C 158.074219 272.265625 159.078125 274.269531 159.496094 276.441406 C 177.386719 265.410156 191.511719 248.941406 199.703125 229.378906 C 199.957031 229.378906 200.207031 229.378906 200.457031 229.378906 C 205.972656 229.378906 210.40625 224.949219 210.40625 219.433594 C 210.40625 215.753906 208.398438 212.496094 205.390625 210.738281 C 206.644531 204.46875 207.3125 198.03125 207.394531 191.429688 C 207.644531 154.480469 236.988281 124.050781 273.9375 123.886719 C 311.132812 123.71875 341.394531 154.0625 341.0625 191.34375 C 340.726562 228.042969 310.464844 257.800781 273.851562 257.550781 C 256.964844 257.46875 241.585938 251.113281 229.882812 240.664062 C 221.941406 233.558594 209.402344 235.566406 204.21875 244.929688 C 204.136719 245.011719 204.050781 245.179688 204.050781 245.261719 C 200.207031 252.117188 201.710938 260.726562 207.5625 265.996094 C 225.535156 281.960938 249.277344 291.574219 275.273438 291.324219 C 330.695312 290.820312 375 245.933594 374.917969 190.507812 C 374.832031 135.003906 329.777344 90.113281 274.269531 90.113281 C 218.929688 90.113281 174.042969 134.753906 173.625 190.007812 C 173.539062 203.71875 169.445312 216.589844 162.421875 227.289062 C 161.503906 226.957031 160.414062 226.789062 159.414062 226.789062 C 153.894531 226.789062 149.464844 231.21875 149.464844 236.738281 C 149.464844 241.082031 152.222656 244.761719 156.070312 246.097656 L 146.789062 269.503906 C 146.371094 269.421875 146.039062 269.421875 145.621094 269.421875 C 140.101562 269.421875 135.671875 273.851562 135.671875 279.367188 C 135.671875 279.703125 135.671875 280.039062 135.753906 280.289062 C 126.644531 283.214844 117.113281 284.800781 107.417969 284.800781 C 92.035156 284.886719 76.90625 281.207031 63.449219 274.1875 L 87.941406 268.667969 C 86.769531 266.832031 86.019531 264.742188 85.765625 262.484375 L 61.691406 267.917969 C 60.4375 263.988281 56.761719 261.144531 52.414062 261.0625 L 49.152344 235.984375 C 59.269531 248.859375 73.644531 258.21875 90.03125 262.148438 C 90.699219 267.082031 94.878906 270.925781 99.976562 270.925781 C 101.648438 270.925781 103.152344 270.507812 104.492188 269.839844 L 131.324219 278.617188 C 131.492188 276.359375 132.160156 274.1875 133.164062 272.347656 L 109.257812 264.574219 C 109.339844 264.40625 109.339844 264.238281 109.421875 264.070312 C 125.304688 263.488281 139.933594 257.886719 151.636719 248.773438 C 149.714844 247.519531 148.128906 245.847656 147.039062 243.925781 C 136.507812 252.035156 123.46875 257.050781 109.257812 257.550781 C 107.835938 253.707031 104.242188 251.03125 99.894531 251.03125 C 96.300781 251.03125 93.121094 252.953125 91.367188 255.796875 C 74.316406 251.785156 59.769531 241.25 50.574219 226.957031 C 52.664062 225.117188 54 222.441406 54 219.433594 C 54 213.914062 49.570312 209.484375 44.054688 209.484375 C 43.550781 209.484375 43.132812 209.484375 42.632812 209.570312 C 40.792969 203.382812 39.875 196.863281 39.957031 190.089844 C 40.042969 183.152344 41.128906 176.464844 43.21875 170.113281 C 41.042969 169.777344 38.953125 168.859375 37.199219 167.605469 C 34.859375 174.625 33.519531 182.234375 33.4375 190.007812 C 33.355469 195.691406 34.023438 201.292969 35.191406 206.644531 L 20.5625 186.414062 C 19.058594 188.085938 17.21875 189.339844 15.214844 190.175781 Z M 153.8125 236.738281 C 153.8125 233.644531 156.320312 231.136719 159.414062 231.136719 C 162.503906 231.136719 165.011719 233.644531 165.011719 236.738281 C 165.011719 239.828125 162.503906 242.335938 159.414062 242.335938 C 156.320312 242.335938 153.8125 239.828125 153.8125 236.738281 Z M 145.621094 273.769531 C 148.710938 273.769531 151.21875 276.277344 151.21875 279.367188 C 151.21875 282.460938 148.710938 284.96875 145.621094 284.96875 C 142.527344 284.96875 140.019531 282.460938 140.019531 279.367188 C 140.019531 276.277344 142.441406 273.769531 145.621094 273.769531 Z M 44.136719 213.832031 C 47.230469 213.832031 49.738281 216.339844 49.738281 219.433594 C 49.738281 222.527344 47.230469 225.035156 44.136719 225.035156 C 41.042969 225.035156 38.535156 222.527344 38.535156 219.433594 C 38.453125 216.339844 40.960938 213.832031 44.136719 213.832031 Z M 44.136719 213.832031 " fill-opacity="1" fill-rule="nonzero"/></g><path fill="#606cf5" d="M 287.132812 192.472656 C 286.148438 192.472656 285.214844 192.765625 284.421875 193.308594 C 283.597656 192.699219 282.613281 192.359375 281.574219 192.359375 C 280.28125 192.359375 279.070312 192.859375 278.160156 193.773438 C 277.734375 194.195312 277.734375 194.882812 278.160156 195.304688 C 278.582031 195.730469 279.269531 195.730469 279.691406 195.304688 C 280.695312 194.300781 282.445312 194.300781 283.449219 195.304688 C 283.953125 195.808594 284.230469 196.476562 284.230469 197.183594 C 284.230469 197.894531 283.953125 198.5625 283.449219 199.0625 C 283.027344 199.488281 283.027344 200.171875 283.449219 200.597656 C 283.664062 200.808594 283.941406 200.914062 284.21875 200.914062 C 284.496094 200.914062 284.773438 200.808594 284.984375 200.597656 C 285.894531 199.683594 286.398438 198.472656 286.398438 197.183594 C 286.398438 196.40625 286.195312 195.664062 285.847656 194.992188 C 286.855469 194.457031 288.183594 194.589844 289.011719 195.417969 C 289.222656 195.628906 289.5 195.734375 289.777344 195.734375 C 290.054688 195.734375 290.332031 195.628906 290.546875 195.417969 C 290.96875 194.996094 290.96875 194.308594 290.546875 193.882812 C 289.632812 192.972656 288.421875 192.472656 287.132812 192.472656 Z M 287.132812 192.472656 " fill-opacity="1" fill-rule="nonzero"/><path fill="#606cf5" d="M 295.796875 189.347656 C 295.527344 189.070312 295.242188 188.808594 294.9375 188.574219 C 296.285156 187.609375 297.152344 186.035156 297.152344 184.304688 C 297.152344 181.933594 295.570312 179.921875 293.40625 179.265625 C 293.90625 177.558594 293.820312 175.722656 293.140625 173.96875 C 292.34375 171.921875 290.636719 170.269531 288.574219 169.542969 C 286.882812 168.949219 285.152344 168.894531 283.558594 169.347656 C 283.628906 168.503906 283.496094 167.625 283.148438 166.777344 C 282.609375 165.46875 281.535156 164.445312 280.199219 163.972656 C 278.5 163.367188 276.707031 163.597656 275.28125 164.601562 C 274.839844 164.917969 274.457031 165.300781 274.136719 165.722656 C 273.8125 165.300781 273.433594 164.917969 272.988281 164.601562 C 271.566406 163.597656 269.773438 163.367188 268.070312 163.972656 C 266.738281 164.445312 265.664062 165.46875 265.125 166.777344 C 264.777344 167.625 264.640625 168.503906 264.714844 169.347656 C 263.121094 168.894531 261.390625 168.949219 259.699219 169.542969 C 257.636719 170.269531 255.929688 171.921875 255.132812 173.96875 C 254.453125 175.722656 254.367188 177.558594 254.863281 179.265625 C 252.703125 179.921875 251.117188 181.933594 251.117188 184.304688 C 251.117188 186.035156 251.988281 187.609375 253.335938 188.574219 C 253.03125 188.808594 252.742188 189.070312 252.476562 189.347656 C 251.046875 190.835938 250.261719 192.796875 250.261719 194.859375 C 250.261719 198.324219 252.46875 201.324219 255.660156 202.410156 C 255.359375 203.738281 255.503906 205.117188 256.09375 206.457031 C 256.710938 207.855469 257.886719 208.996094 259.316406 209.585938 C 261.007812 210.28125 262.761719 210.273438 264.347656 209.570312 C 265.558594 210.734375 267.125 211.351562 268.769531 211.351562 C 269.601562 211.351562 270.449219 211.195312 271.28125 210.871094 C 272.460938 210.410156 273.445312 209.582031 274.136719 208.535156 C 274.824219 209.582031 275.8125 210.410156 276.988281 210.871094 C 277.820312 211.195312 278.671875 211.351562 279.5 211.351562 C 281.144531 211.351562 282.714844 210.734375 283.925781 209.570312 C 285.511719 210.273438 287.265625 210.28125 288.953125 209.585938 C 290.386719 208.996094 291.5625 207.855469 292.175781 206.457031 C 292.765625 205.117188 292.914062 203.738281 292.613281 202.410156 C 295.804688 201.324219 298.011719 198.324219 298.011719 194.859375 C 298.011719 192.796875 297.222656 190.835938 295.796875 189.347656 Z M 270.496094 208.847656 C 268.226562 209.734375 266.390625 208.757812 265.433594 207.550781 C 265.21875 207.28125 264.902344 207.140625 264.582031 207.140625 C 264.386719 207.140625 264.191406 207.191406 264.015625 207.300781 C 263.183594 207.8125 261.839844 208.277344 260.144531 207.578125 C 259.226562 207.203125 258.472656 206.472656 258.078125 205.582031 C 257.425781 204.097656 257.699219 202.863281 258.042969 202.089844 C 258.175781 201.785156 258.164062 201.433594 258.007812 201.140625 C 257.851562 200.84375 257.566406 200.640625 257.238281 200.582031 C 254.453125 200.09375 252.429688 197.6875 252.429688 194.859375 C 252.429688 193.359375 253.003906 191.933594 254.042969 190.847656 C 254.636719 190.230469 255.367188 189.742188 256.164062 189.4375 C 256.621094 189.257812 256.90625 188.792969 256.851562 188.304688 C 256.796875 187.816406 256.417969 187.421875 255.929688 187.351562 C 254.398438 187.125 253.289062 185.84375 253.289062 184.304688 C 253.289062 182.605469 254.671875 181.21875 256.371094 181.210938 C 256.746094 181.210938 257.09375 181.015625 257.289062 180.695312 C 257.484375 180.375 257.503906 179.976562 257.335938 179.640625 C 256.800781 178.578125 256.335938 176.867188 257.15625 174.757812 C 257.722656 173.292969 258.945312 172.109375 260.417969 171.589844 C 262.441406 170.878906 264.523438 171.203125 266.132812 172.476562 C 266.574219 172.824219 267.203125 172.78125 267.589844 172.378906 C 267.976562 171.972656 267.992188 171.34375 267.625 170.917969 C 266.824219 169.992188 266.644531 168.785156 267.128906 167.601562 C 267.429688 166.875 268.054688 166.28125 268.796875 166.015625 C 269.828125 165.648438 270.898438 165.78125 271.738281 166.375 C 272.5625 166.953125 273.050781 167.902344 273.050781 168.90625 L 273.050781 198.175781 C 272.097656 197.421875 270.90625 196.957031 269.597656 196.957031 C 266.5 196.957031 263.976562 199.476562 263.976562 202.578125 C 263.976562 203.175781 264.464844 203.660156 265.0625 203.660156 C 265.660156 203.660156 266.148438 203.175781 266.148438 202.578125 C 266.148438 200.671875 267.695312 199.125 269.597656 199.125 C 271.503906 199.125 273.050781 200.671875 273.050781 202.578125 L 273.050781 204.902344 C 273.050781 206.667969 272.023438 208.253906 270.496094 208.847656 Z M 291.035156 200.582031 C 290.707031 200.640625 290.421875 200.84375 290.265625 201.140625 C 290.109375 201.433594 290.09375 201.785156 290.230469 202.089844 C 290.574219 202.863281 290.84375 204.097656 290.191406 205.582031 C 289.800781 206.472656 289.046875 207.203125 288.128906 207.582031 C 286.433594 208.277344 285.089844 207.8125 284.257812 207.300781 C 283.789062 207.015625 283.179688 207.121094 282.839844 207.550781 C 281.878906 208.757812 280.050781 209.734375 277.777344 208.847656 C 276.246094 208.253906 275.21875 206.667969 275.21875 204.902344 L 275.21875 183.226562 C 276.175781 183.980469 277.367188 184.445312 278.671875 184.445312 C 281.773438 184.445312 284.292969 181.925781 284.292969 178.824219 C 284.292969 178.226562 283.808594 177.742188 283.210938 177.742188 C 282.609375 177.742188 282.125 178.226562 282.125 178.824219 C 282.125 180.730469 280.578125 182.277344 278.671875 182.277344 C 276.769531 182.277344 275.21875 180.730469 275.21875 178.824219 L 275.21875 168.90625 C 275.21875 167.902344 275.710938 166.953125 276.53125 166.375 C 277.058594 166.003906 277.675781 165.8125 278.320312 165.8125 C 278.699219 165.8125 279.089844 165.878906 279.476562 166.015625 C 280.21875 166.28125 280.839844 166.875 281.140625 167.601562 C 281.628906 168.785156 281.445312 169.992188 280.644531 170.917969 C 280.28125 171.34375 280.296875 171.972656 280.683594 172.378906 C 281.070312 172.78125 281.699219 172.824219 282.140625 172.476562 C 283.746094 171.203125 285.828125 170.878906 287.855469 171.589844 C 289.328125 172.109375 290.546875 173.292969 291.117188 174.757812 C 291.9375 176.867188 291.472656 178.578125 290.9375 179.640625 C 290.769531 179.976562 290.785156 180.375 290.980469 180.695312 C 291.179688 181.015625 291.527344 181.210938 291.902344 181.210938 C 293.601562 181.21875 294.984375 182.605469 294.984375 184.304688 C 294.984375 185.84375 293.871094 187.125 292.339844 187.351562 C 291.855469 187.421875 291.476562 187.816406 291.421875 188.304688 C 291.367188 188.792969 291.652344 189.257812 292.109375 189.4375 C 292.90625 189.742188 293.636719 190.230469 294.230469 190.847656 C 295.269531 191.933594 295.839844 193.359375 295.839844 194.859375 C 295.839844 197.6875 293.820312 200.09375 291.035156 200.582031 Z M 291.035156 200.582031 " fill-opacity="1" fill-rule="nonzero"/><path fill="#606cf5" d="M 266.0625 187.550781 C 266.0625 188.152344 266.550781 188.636719 267.148438 188.636719 C 267.746094 188.636719 268.234375 188.152344 268.234375 187.550781 C 268.234375 185.851562 267.347656 184.363281 266.015625 183.503906 C 266.019531 183.5 266.027344 183.496094 266.03125 183.488281 C 267.914062 181.609375 267.914062 178.546875 266.03125 176.664062 C 265.609375 176.242188 264.921875 176.242188 264.5 176.664062 C 264.074219 177.085938 264.074219 177.773438 264.5 178.199219 C 265.535156 179.234375 265.535156 180.917969 264.5 181.957031 C 263.464844 182.992188 261.777344 182.992188 260.742188 181.957031 C 260.316406 181.53125 259.628906 181.53125 259.207031 181.957031 C 258.785156 182.378906 258.785156 183.066406 259.207031 183.488281 C 260.148438 184.429688 261.382812 184.902344 262.621094 184.902344 C 262.804688 184.902344 262.992188 184.867188 263.175781 184.847656 C 263.25 184.863281 263.324219 184.894531 263.40625 184.894531 C 264.871094 184.894531 266.0625 186.085938 266.0625 187.550781 Z M 266.0625 187.550781 " fill-opacity="1" fill-rule="nonzero"/><g clip-path="url(#dee5407629)"><path fill="#606cf5" d="M 316.429688 188.582031 C 317.027344 188.582031 317.511719 188.097656 317.511719 187.5 C 317.511719 186.898438 317.027344 186.414062 316.429688 186.414062 L 306.667969 186.414062 L 306.667969 171.230469 L 312.320312 171.230469 C 312.738281 172.1875 313.691406 172.859375 314.800781 172.859375 C 316.300781 172.859375 317.511719 171.644531 317.511719 170.148438 C 317.511719 168.652344 316.300781 167.4375 314.800781 167.4375 C 313.691406 167.4375 312.738281 168.105469 312.320312 169.0625 L 306.667969 169.0625 L 306.667969 160.386719 C 306.667969 157.398438 304.234375 154.964844 301.246094 154.964844 L 292.574219 154.964844 L 292.574219 145.207031 C 292.574219 144.605469 292.089844 144.121094 291.492188 144.121094 C 290.894531 144.121094 290.40625 144.605469 290.40625 145.207031 L 290.40625 154.964844 L 275.226562 154.964844 L 275.226562 145.207031 C 275.226562 144.605469 274.738281 144.121094 274.140625 144.121094 C 273.542969 144.121094 273.054688 144.605469 273.054688 145.207031 L 273.054688 154.964844 L 257.875 154.964844 L 257.875 149.316406 C 258.832031 148.894531 259.5 147.945312 259.5 146.832031 C 259.5 145.335938 258.289062 144.121094 256.789062 144.121094 C 255.292969 144.121094 254.078125 145.335938 254.078125 146.832031 C 254.078125 147.945312 254.75 148.894531 255.707031 149.316406 L 255.707031 154.964844 L 247.027344 154.964844 C 244.035156 154.964844 241.601562 157.398438 241.601562 160.386719 L 241.601562 169.0625 L 231.84375 169.0625 C 231.246094 169.0625 230.757812 169.550781 230.757812 170.148438 C 230.757812 170.746094 231.246094 171.230469 231.84375 171.230469 L 241.601562 171.230469 L 241.601562 186.414062 L 231.84375 186.414062 C 231.246094 186.414062 230.757812 186.898438 230.757812 187.5 C 230.757812 188.097656 231.246094 188.582031 231.84375 188.582031 L 241.601562 188.582031 L 241.601562 203.765625 L 235.953125 203.765625 C 235.535156 202.808594 234.582031 202.136719 233.46875 202.136719 C 231.972656 202.136719 230.757812 203.351562 230.757812 204.847656 C 230.757812 206.347656 231.972656 207.558594 233.46875 207.558594 C 234.582031 207.558594 235.535156 206.890625 235.953125 205.933594 L 241.601562 205.933594 L 241.601562 214.609375 C 241.601562 217.597656 244.035156 220.03125 247.027344 220.03125 L 255.699219 220.03125 L 255.699219 225.695312 C 254.746094 226.113281 254.078125 227.066406 254.078125 228.171875 C 254.078125 229.671875 255.292969 230.882812 256.789062 230.882812 C 258.289062 230.882812 259.5 229.671875 259.5 228.171875 C 259.5 227.0625 258.828125 226.105469 257.871094 225.6875 L 257.871094 220.03125 L 273.050781 220.03125 L 273.050781 229.792969 C 273.050781 230.390625 273.539062 230.875 274.136719 230.875 C 274.734375 230.875 275.21875 230.390625 275.21875 229.792969 L 275.21875 220.03125 L 290.402344 220.03125 L 290.402344 229.792969 C 290.402344 230.390625 290.886719 230.875 291.488281 230.875 C 292.085938 230.875 292.570312 230.390625 292.570312 229.792969 L 292.570312 220.03125 L 301.246094 220.03125 C 304.234375 220.03125 306.667969 217.597656 306.667969 214.609375 L 306.667969 205.933594 L 316.429688 205.933594 C 317.027344 205.933594 317.511719 205.449219 317.511719 204.847656 C 317.511719 204.25 317.027344 203.765625 316.429688 203.765625 L 306.667969 203.765625 L 306.667969 188.582031 Z M 304.5 214.609375 C 304.5 216.402344 303.039062 217.863281 301.246094 217.863281 L 247.027344 217.863281 C 245.230469 217.863281 243.773438 216.402344 243.773438 214.609375 L 243.773438 160.386719 C 243.773438 158.59375 245.230469 157.136719 247.027344 157.136719 L 301.246094 157.136719 C 303.039062 157.136719 304.5 158.59375 304.5 160.386719 Z M 304.5 214.609375 " fill-opacity="1" fill-rule="nonzero"/></g></svg>