<svg xmlns="http://www.w3.org/2000/svg" xmlns:xlink="http://www.w3.org/1999/xlink" width="1080" zoomAndPan="magnify" viewBox="0 0 810 809.999993" height="1080" preserveAspectRatio="xMidYMid meet" version="1.0"><rect x="-81" width="972" fill="#ffffff" y="-80.999999" height="971.999992" fill-opacity="1"/><rect x="-81" width="972" fill="#ffffff" y="-80.999999" height="971.999992" fill-opacity="1"/><rect x="-81" width="972" fill="#ffffff" y="-80.999999" height="971.999992" fill-opacity="1"/><path fill="#c74634" d="M 255.65625 660.65625 C 113.019531 660.65625 0 544.925781 0 405 C 0 262.363281 115.714844 149.34375 255.65625 149.34375 L 554.34375 149.34375 C 696.980469 149.34375 810 265.074219 810 405 C 810 547.636719 694.285156 660.65625 554.34375 660.65625 Z M 548.976562 569.152344 C 640.480469 569.152344 715.824219 493.808594 715.824219 402.304688 C 715.824219 310.800781 640.480469 235.457031 548.976562 235.457031 L 263.71875 235.457031 C 172.214844 235.457031 96.871094 310.800781 96.871094 402.304688 C 96.871094 493.808594 172.226562 569.152344 263.71875 569.152344 Z M 548.976562 569.152344 " fill-opacity="1" fill-rule="nonzero"/></svg>