<svg xmlns="http://www.w3.org/2000/svg" xmlns:xlink="http://www.w3.org/1999/xlink" width="1080" zoomAndPan="magnify" viewBox="0 0 810 809.999993" height="1080" preserveAspectRatio="xMidYMid meet" version="1.0"><rect x="-81" width="972" fill="#ffffff" y="-80.999999" height="971.999992" fill-opacity="1"/><rect x="-81" width="972" fill="#ffffff" y="-80.999999" height="971.999992" fill-opacity="1"/><path fill="#146fbf" d="M 30.761719 706.238281 L 640.9375 706.238281 C 659.949219 706.238281 678.925781 690.777344 683.277344 671.699219 L 805.75 138.300781 C 810.132812 119.222656 798.25 103.761719 779.238281 103.761719 L 169.0625 103.761719 C 150.050781 103.761719 131.074219 119.222656 126.722656 138.300781 L 4.25 671.699219 C -0.132812 690.777344 11.75 706.238281 30.761719 706.238281 Z M 553.914062 562.480469 C 571.015625 562.480469 584.875 576.269531 584.972656 593.273438 C 584.875 610.3125 571.015625 624.066406 553.914062 624.066406 C 553.847656 624.066406 553.777344 624.066406 553.710938 624.066406 L 405.335938 624.066406 C 388.0625 624.066406 374.074219 610.277344 374.074219 593.273438 C 374.171875 576.238281 388.03125 562.480469 405.132812 562.480469 C 405.199219 562.480469 405.269531 562.480469 405.335938 562.480469 L 553.710938 562.480469 C 553.777344 562.480469 553.847656 562.480469 553.914062 562.480469 Z M 164.34375 572.722656 L 412.699219 393.386719 L 412.699219 389.703125 L 256.65625 224.1875 C 243.9375 210.699219 245.242188 188.878906 259.601562 175.421875 C 273.960938 161.964844 295.953125 162.035156 308.671875 175.554688 L 495.90625 374.171875 C 506.519531 385.453125 507.320312 402.488281 498.917969 415.644531 C 496.375 420.796875 491.085938 426.421875 481.714844 433.015625 L 206.28125 630.226562 C 191.253906 641.136719 169.664062 637.089844 158.082031 621.222656 C 146.503906 605.324219 149.28125 583.636719 164.34375 572.722656 Z M 164.34375 572.722656 " fill-opacity="1" fill-rule="nonzero"/></svg>