<svg xmlns="http://www.w3.org/2000/svg" xmlns:xlink="http://www.w3.org/1999/xlink" width="1080" zoomAndPan="magnify" viewBox="0 0 810 809.999993" height="1080" preserveAspectRatio="xMidYMid meet" version="1.0"><defs><g/><clipPath id="2bb909c490"><path d="M 759 663.675781 L 780 663.675781 L 780 728.925781 L 759 728.925781 Z M 759 663.675781 " clip-rule="nonzero"/></clipPath><clipPath id="b60a975723"><path d="M 729 663.675781 L 749 663.675781 L 749 728.925781 L 729 728.925781 Z M 729 663.675781 " clip-rule="nonzero"/></clipPath><clipPath id="628ba5f92e"><path d="M 61 81 L 81 81 L 81 146.25 L 61 146.25 Z M 61 81 " clip-rule="nonzero"/></clipPath><clipPath id="4113d2b7bf"><path d="M 30.164062 81 L 51 81 L 51 146.25 L 30.164062 146.25 Z M 30.164062 81 " clip-rule="nonzero"/></clipPath></defs><rect x="-81" width="972" fill="#ffffff" y="-80.999999" height="971.999992" fill-opacity="1"/><rect x="-81" width="972" fill="#606cf5" y="-80.999999" height="971.999992" fill-opacity="1"/><path fill="#05f1c7" d="M 0 673.707031 L 13.5 673.707031 L 13.5 678.207031 L 0 678.207031 M 18 673.707031 L 31.5 673.707031 L 31.5 678.207031 L 18 678.207031 M 36 673.707031 L 49.5 673.707031 L 49.5 678.207031 L 36 678.207031 M 54 673.707031 L 67.5 673.707031 L 67.5 678.207031 L 54 678.207031 M 72 673.707031 L 85.5 673.707031 L 85.5 678.207031 L 72 678.207031 M 90 673.707031 L 103.5 673.707031 L 103.5 678.207031 L 90 678.207031 M 108 673.707031 L 121.5 673.707031 L 121.5 678.207031 L 108 678.207031 M 126 673.707031 L 139.5 673.707031 L 139.5 678.207031 L 126 678.207031 M 144 673.707031 L 157.5 673.707031 L 157.5 678.207031 L 144 678.207031 M 162 673.707031 L 175.5 673.707031 L 175.5 678.207031 L 162 678.207031 M 180 673.707031 L 193.5 673.707031 L 193.5 678.207031 L 180 678.207031 M 198 673.707031 L 211.5 673.707031 L 211.5 678.207031 L 198 678.207031 M 216 673.707031 L 229.5 673.707031 L 229.5 678.207031 L 216 678.207031 M 234 673.707031 L 247.5 673.707031 L 247.5 678.207031 L 234 678.207031 M 252 673.707031 L 265.5 673.707031 L 265.5 678.207031 L 252 678.207031 M 270 673.707031 L 283.5 673.707031 L 283.5 678.207031 L 270 678.207031 M 288 673.707031 L 298.601562 673.707031 L 298.601562 678.207031 L 288 678.207031 " fill-opacity="1" fill-rule="nonzero"/><path stroke-linecap="round" transform="matrix(0.75, 0, 0, 0.75, 0.0000035, 673.705642)" fill-opacity="1" fill="#05f1c7" fill-rule="nonzero" stroke-linejoin="round" d="M 417.635433 3.001852 C 417.635433 7.970603 413.604183 12.001853 408.635433 12.001853 C 403.666682 12.001853 399.635432 7.970603 399.635432 3.001852 C 399.635432 -1.972106 403.666682 -5.998148 408.635433 -5.998148 C 413.604183 -5.998148 417.635433 -1.972106 417.635433 3.001852 " stroke="#05f1c7" stroke-width="6" stroke-opacity="1" stroke-miterlimit="4"/><g fill="#ffffff" fill-opacity="1"><g transform="translate(30.16546, 308.01516)"><g><path d="M 40.90625 -15.859375 C 40.90625 -12.472656 40.082031 -9.53125 38.4375 -7.03125 C 36.800781 -4.53125 34.410156 -2.601562 31.265625 -1.25 C 28.128906 0.101562 24.320312 0.78125 19.84375 0.78125 C 17.863281 0.78125 15.929688 0.648438 14.046875 0.390625 C 12.160156 0.128906 10.347656 -0.253906 8.609375 -0.765625 C 6.878906 -1.273438 5.234375 -1.90625 3.671875 -2.65625 L 3.671875 -13.90625 C 6.378906 -12.707031 9.191406 -11.625 12.109375 -10.65625 C 15.023438 -9.695312 17.914062 -9.21875 20.78125 -9.21875 C 22.757812 -9.21875 24.351562 -9.476562 25.5625 -10 C 26.78125 -10.519531 27.660156 -11.234375 28.203125 -12.140625 C 28.753906 -13.054688 29.03125 -14.101562 29.03125 -15.28125 C 29.03125 -16.707031 28.546875 -17.925781 27.578125 -18.9375 C 26.617188 -19.957031 25.296875 -20.910156 23.609375 -21.796875 C 21.929688 -22.679688 20.039062 -23.632812 17.9375 -24.65625 C 16.601562 -25.28125 15.15625 -26.039062 13.59375 -26.9375 C 12.03125 -27.832031 10.546875 -28.929688 9.140625 -30.234375 C 7.734375 -31.535156 6.582031 -33.117188 5.6875 -34.984375 C 4.789062 -36.847656 4.34375 -39.082031 4.34375 -41.6875 C 4.34375 -45.09375 5.125 -48.003906 6.6875 -50.421875 C 8.25 -52.847656 10.476562 -54.707031 13.375 -56 C 16.28125 -57.289062 19.710938 -57.9375 23.671875 -57.9375 C 26.640625 -57.9375 29.472656 -57.585938 32.171875 -56.890625 C 34.867188 -56.203125 37.6875 -55.207031 40.625 -53.90625 L 36.71875 -44.5 C 34.09375 -45.5625 31.738281 -46.382812 29.65625 -46.96875 C 27.570312 -47.5625 25.445312 -47.859375 23.28125 -47.859375 C 21.769531 -47.859375 20.476562 -47.613281 19.40625 -47.125 C 18.34375 -46.644531 17.535156 -45.96875 16.984375 -45.09375 C 16.441406 -44.226562 16.171875 -43.222656 16.171875 -42.078125 C 16.171875 -40.722656 16.566406 -39.582031 17.359375 -38.65625 C 18.160156 -37.726562 19.359375 -36.832031 20.953125 -35.96875 C 22.554688 -35.113281 24.554688 -34.113281 26.953125 -32.96875 C 29.867188 -31.59375 32.363281 -30.15625 34.4375 -28.65625 C 36.507812 -27.15625 38.101562 -25.394531 39.21875 -23.375 C 40.34375 -21.363281 40.90625 -18.859375 40.90625 -15.859375 Z M 40.90625 -15.859375 "/></g></g></g><g fill="#ffffff" fill-opacity="1"><g transform="translate(74.223655, 308.01516)"><g><path d="M 24.265625 -44.5 C 28.296875 -44.5 31.769531 -43.722656 34.6875 -42.171875 C 37.601562 -40.617188 39.851562 -38.367188 41.4375 -35.421875 C 43.03125 -32.484375 43.828125 -28.894531 43.828125 -24.65625 L 43.828125 -18.875 L 15.671875 -18.875 C 15.796875 -15.507812 16.800781 -12.867188 18.6875 -10.953125 C 20.582031 -9.046875 23.207031 -8.09375 26.5625 -8.09375 C 29.351562 -8.09375 31.90625 -8.378906 34.21875 -8.953125 C 36.539062 -9.523438 38.925781 -10.382812 41.375 -11.53125 L 41.375 -2.3125 C 39.207031 -1.238281 36.945312 -0.457031 34.59375 0.03125 C 32.238281 0.53125 29.378906 0.78125 26.015625 0.78125 C 21.640625 0.78125 17.765625 -0.0234375 14.390625 -1.640625 C 11.023438 -3.253906 8.382812 -5.710938 6.46875 -9.015625 C 4.550781 -12.328125 3.59375 -16.5 3.59375 -21.53125 C 3.59375 -26.632812 4.457031 -30.882812 6.1875 -34.28125 C 7.925781 -37.675781 10.34375 -40.226562 13.4375 -41.9375 C 16.539062 -43.644531 20.148438 -44.5 24.265625 -44.5 Z M 24.34375 -36.015625 C 22.019531 -36.015625 20.097656 -35.269531 18.578125 -33.78125 C 17.054688 -32.300781 16.175781 -29.972656 15.9375 -26.796875 L 32.65625 -26.796875 C 32.632812 -28.566406 32.316406 -30.140625 31.703125 -31.515625 C 31.085938 -32.898438 30.175781 -33.992188 28.96875 -34.796875 C 27.757812 -35.609375 26.21875 -36.015625 24.34375 -36.015625 Z M 24.34375 -36.015625 "/></g></g></g><g fill="#ffffff" fill-opacity="1"><g transform="translate(121.484662, 308.01516)"><g><path d="M 30.625 -44.5 C 31.226562 -44.5 31.925781 -44.460938 32.71875 -44.390625 C 33.507812 -44.328125 34.15625 -44.242188 34.65625 -44.140625 L 33.75 -32.96875 C 33.363281 -33.101562 32.8125 -33.203125 32.09375 -33.265625 C 31.375 -33.328125 30.753906 -33.359375 30.234375 -33.359375 C 28.703125 -33.359375 27.210938 -33.160156 25.765625 -32.765625 C 24.316406 -32.378906 23.019531 -31.75 21.875 -30.875 C 20.726562 -30.007812 19.820312 -28.863281 19.15625 -27.4375 C 18.5 -26.019531 18.171875 -24.285156 18.171875 -22.234375 L 18.171875 0 L 6.25 0 L 6.25 -43.671875 L 15.28125 -43.671875 L 17.03125 -36.328125 L 17.625 -36.328125 C 18.476562 -37.816406 19.550781 -39.175781 20.84375 -40.40625 C 22.132812 -41.644531 23.601562 -42.632812 25.25 -43.375 C 26.90625 -44.125 28.695312 -44.5 30.625 -44.5 Z M 30.625 -44.5 "/></g></g></g><g fill="#ffffff" fill-opacity="1"><g transform="translate(157.809237, 308.01516)"><g><path d="M 16.640625 0 L 0 -43.671875 L 12.46875 -43.671875 L 20.90625 -18.796875 C 21.375 -17.335938 21.742188 -15.800781 22.015625 -14.1875 C 22.285156 -12.570312 22.472656 -11.125 22.578125 -9.84375 L 22.890625 -9.84375 C 22.972656 -11.226562 23.160156 -12.703125 23.453125 -14.265625 C 23.753906 -15.828125 24.15625 -17.335938 24.65625 -18.796875 L 33.046875 -43.671875 L 45.515625 -43.671875 L 28.875 0 Z M 16.640625 0 "/></g></g></g><g fill="#ffffff" fill-opacity="1"><g transform="translate(203.312603, 308.01516)"><g><path d="M 18.171875 -43.671875 L 18.171875 0 L 6.25 0 L 6.25 -43.671875 Z M 12.234375 -60.78125 C 14.003906 -60.78125 15.523438 -60.367188 16.796875 -59.546875 C 18.078125 -58.734375 18.71875 -57.207031 18.71875 -54.96875 C 18.71875 -52.75 18.078125 -51.21875 16.796875 -50.375 C 15.523438 -49.53125 14.003906 -49.109375 12.234375 -49.109375 C 10.429688 -49.109375 8.898438 -49.53125 7.640625 -50.375 C 6.378906 -51.21875 5.75 -52.75 5.75 -54.96875 C 5.75 -57.207031 6.378906 -58.734375 7.640625 -59.546875 C 8.898438 -60.367188 10.429688 -60.78125 12.234375 -60.78125 Z M 12.234375 -60.78125 "/></g></g></g><g fill="#ffffff" fill-opacity="1"><g transform="translate(227.72428, 308.01516)"><g><path d="M 23.984375 0.78125 C 19.660156 0.78125 15.972656 -0.00390625 12.921875 -1.578125 C 9.878906 -3.160156 7.5625 -5.601562 5.96875 -8.90625 C 4.382812 -12.21875 3.59375 -16.453125 3.59375 -21.609375 C 3.59375 -26.941406 4.5 -31.296875 6.3125 -34.671875 C 8.125 -38.046875 10.632812 -40.523438 13.84375 -42.109375 C 17.0625 -43.703125 20.796875 -44.5 25.046875 -44.5 C 28.066406 -44.5 30.675781 -44.203125 32.875 -43.609375 C 35.070312 -43.023438 36.992188 -42.332031 38.640625 -41.53125 L 35.125 -32.3125 C 33.25 -33.0625 31.503906 -33.675781 29.890625 -34.15625 C 28.273438 -34.644531 26.660156 -34.890625 25.046875 -34.890625 C 22.960938 -34.890625 21.226562 -34.398438 19.84375 -33.421875 C 18.46875 -32.441406 17.441406 -30.972656 16.765625 -29.015625 C 16.085938 -27.066406 15.75 -24.625 15.75 -21.6875 C 15.75 -18.789062 16.113281 -16.390625 16.84375 -14.484375 C 17.570312 -12.585938 18.625 -11.175781 20 -10.25 C 21.382812 -9.332031 23.066406 -8.875 25.046875 -8.875 C 27.515625 -8.875 29.710938 -9.203125 31.640625 -9.859375 C 33.566406 -10.523438 35.441406 -11.457031 37.265625 -12.65625 L 37.265625 -2.46875 C 35.441406 -1.320312 33.535156 -0.492188 31.546875 0.015625 C 29.554688 0.523438 27.035156 0.78125 23.984375 0.78125 Z M 23.984375 0.78125 "/></g></g></g><g fill="#ffffff" fill-opacity="1"><g transform="translate(268.853085, 308.01516)"><g><path d="M 24.265625 -44.5 C 28.296875 -44.5 31.769531 -43.722656 34.6875 -42.171875 C 37.601562 -40.617188 39.851562 -38.367188 41.4375 -35.421875 C 43.03125 -32.484375 43.828125 -28.894531 43.828125 -24.65625 L 43.828125 -18.875 L 15.671875 -18.875 C 15.796875 -15.507812 16.800781 -12.867188 18.6875 -10.953125 C 20.582031 -9.046875 23.207031 -8.09375 26.5625 -8.09375 C 29.351562 -8.09375 31.90625 -8.378906 34.21875 -8.953125 C 36.539062 -9.523438 38.925781 -10.382812 41.375 -11.53125 L 41.375 -2.3125 C 39.207031 -1.238281 36.945312 -0.457031 34.59375 0.03125 C 32.238281 0.53125 29.378906 0.78125 26.015625 0.78125 C 21.640625 0.78125 17.765625 -0.0234375 14.390625 -1.640625 C 11.023438 -3.253906 8.382812 -5.710938 6.46875 -9.015625 C 4.550781 -12.328125 3.59375 -16.5 3.59375 -21.53125 C 3.59375 -26.632812 4.457031 -30.882812 6.1875 -34.28125 C 7.925781 -37.675781 10.34375 -40.226562 13.4375 -41.9375 C 16.539062 -43.644531 20.148438 -44.5 24.265625 -44.5 Z M 24.34375 -36.015625 C 22.019531 -36.015625 20.097656 -35.269531 18.578125 -33.78125 C 17.054688 -32.300781 16.175781 -29.972656 15.9375 -26.796875 L 32.65625 -26.796875 C 32.632812 -28.566406 32.316406 -30.140625 31.703125 -31.515625 C 31.085938 -32.898438 30.175781 -33.992188 28.96875 -34.796875 C 27.757812 -35.609375 26.21875 -36.015625 24.34375 -36.015625 Z M 24.34375 -36.015625 "/></g></g></g><g fill="#05f1c7" fill-opacity="1"><g transform="translate(30.16546, 440.015153)"><g><path d="M 28.875 -32.078125 L 51.53125 -32.078125 L 51.53125 -2.46875 C 48.53125 -1.476562 45.414062 -0.6875 42.1875 -0.09375 C 38.957031 0.488281 35.300781 0.78125 31.21875 0.78125 C 25.539062 0.78125 20.722656 -0.335938 16.765625 -2.578125 C 12.804688 -4.816406 9.796875 -8.125 7.734375 -12.5 C 5.679688 -16.875 4.65625 -22.253906 4.65625 -28.640625 C 4.65625 -34.628906 5.804688 -39.8125 8.109375 -44.1875 C 10.410156 -48.5625 13.78125 -51.945312 18.21875 -54.34375 C 22.664062 -56.738281 28.09375 -57.9375 34.5 -57.9375 C 37.519531 -57.9375 40.5 -57.609375 43.4375 -56.953125 C 46.382812 -56.304688 49.054688 -55.460938 51.453125 -54.421875 L 47.421875 -44.734375 C 45.679688 -45.617188 43.691406 -46.359375 41.453125 -46.953125 C 39.210938 -47.554688 36.867188 -47.859375 34.421875 -47.859375 C 30.898438 -47.859375 27.84375 -47.050781 25.25 -45.4375 C 22.664062 -43.820312 20.660156 -41.5625 19.234375 -38.65625 C 17.816406 -35.75 17.109375 -32.332031 17.109375 -28.40625 C 17.109375 -24.675781 17.613281 -21.375 18.625 -18.5 C 19.644531 -15.625 21.25 -13.367188 23.4375 -11.734375 C 25.625 -10.109375 28.476562 -9.296875 32 -9.296875 C 33.71875 -9.296875 35.164062 -9.378906 36.34375 -9.546875 C 37.53125 -9.722656 38.644531 -9.898438 39.6875 -10.078125 L 39.6875 -22 L 28.875 -22 Z M 28.875 -32.078125 "/></g></g></g><g fill="#05f1c7" fill-opacity="1"><g transform="translate(88.089487, 440.015153)"><g><path d="M 18.171875 0 L 6.25 0 L 6.25 -60.78125 L 18.171875 -60.78125 Z M 18.171875 0 "/></g></g></g><g fill="#05f1c7" fill-opacity="1"><g transform="translate(112.501164, 440.015153)"><g><path d="M 24.140625 -44.578125 C 30.003906 -44.578125 34.5 -43.300781 37.625 -40.75 C 40.75 -38.195312 42.3125 -34.316406 42.3125 -29.109375 L 42.3125 0 L 33.984375 0 L 31.6875 -5.9375 L 31.375 -5.9375 C 30.125 -4.375 28.847656 -3.097656 27.546875 -2.109375 C 26.242188 -1.117188 24.742188 -0.390625 23.046875 0.078125 C 21.359375 0.546875 19.300781 0.78125 16.875 0.78125 C 14.300781 0.78125 11.988281 0.285156 9.9375 -0.703125 C 7.894531 -1.691406 6.285156 -3.207031 5.109375 -5.25 C 3.941406 -7.300781 3.359375 -9.898438 3.359375 -13.046875 C 3.359375 -17.679688 4.984375 -21.097656 8.234375 -23.296875 C 11.492188 -25.503906 16.378906 -26.722656 22.890625 -26.953125 L 30.46875 -27.1875 L 30.46875 -29.109375 C 30.46875 -31.398438 29.867188 -33.078125 28.671875 -34.140625 C 27.472656 -35.210938 25.804688 -35.75 23.671875 -35.75 C 21.566406 -35.75 19.5 -35.445312 17.46875 -34.84375 C 15.4375 -34.25 13.40625 -33.492188 11.375 -32.578125 L 7.421875 -40.625 C 9.742188 -41.851562 12.34375 -42.816406 15.21875 -43.515625 C 18.09375 -44.222656 21.066406 -44.578125 24.140625 -44.578125 Z M 30.46875 -20.234375 L 25.859375 -20.078125 C 22.003906 -19.972656 19.328125 -19.28125 17.828125 -18 C 16.335938 -16.726562 15.59375 -15.050781 15.59375 -12.96875 C 15.59375 -11.144531 16.125 -9.847656 17.1875 -9.078125 C 18.257812 -8.316406 19.65625 -7.9375 21.375 -7.9375 C 23.925781 -7.9375 26.078125 -8.691406 27.828125 -10.203125 C 29.585938 -11.710938 30.46875 -13.859375 30.46875 -16.640625 Z M 30.46875 -20.234375 "/></g></g></g><g fill="#05f1c7" fill-opacity="1"><g transform="translate(160.816755, 440.015153)"><g><path d="M 36.71875 -12.96875 C 36.71875 -10 36.019531 -7.492188 34.625 -5.453125 C 33.238281 -3.410156 31.164062 -1.859375 28.40625 -0.796875 C 25.644531 0.253906 22.207031 0.78125 18.09375 0.78125 C 15.039062 0.78125 12.425781 0.582031 10.25 0.1875 C 8.082031 -0.195312 5.890625 -0.847656 3.671875 -1.765625 L 3.671875 -11.609375 C 6.046875 -10.535156 8.59375 -9.65625 11.3125 -8.96875 C 14.03125 -8.28125 16.421875 -7.9375 18.484375 -7.9375 C 20.796875 -7.9375 22.453125 -8.28125 23.453125 -8.96875 C 24.460938 -9.65625 24.96875 -10.5625 24.96875 -11.6875 C 24.96875 -12.414062 24.765625 -13.070312 24.359375 -13.65625 C 23.953125 -14.238281 23.082031 -14.898438 21.75 -15.640625 C 20.425781 -16.390625 18.347656 -17.363281 15.515625 -18.5625 C 12.773438 -19.707031 10.523438 -20.863281 8.765625 -22.03125 C 7.015625 -23.207031 5.710938 -24.59375 4.859375 -26.1875 C 4.015625 -27.789062 3.59375 -29.832031 3.59375 -32.3125 C 3.59375 -36.34375 5.160156 -39.378906 8.296875 -41.421875 C 11.441406 -43.472656 15.644531 -44.5 20.90625 -44.5 C 23.613281 -44.5 26.195312 -44.222656 28.65625 -43.671875 C 31.113281 -43.128906 33.644531 -42.257812 36.25 -41.0625 L 32.65625 -32.46875 C 30.5 -33.40625 28.460938 -34.171875 26.546875 -34.765625 C 24.628906 -35.367188 22.679688 -35.671875 20.703125 -35.671875 C 18.960938 -35.671875 17.648438 -35.4375 16.765625 -34.96875 C 15.878906 -34.5 15.4375 -33.78125 15.4375 -32.8125 C 15.4375 -32.113281 15.660156 -31.488281 16.109375 -30.9375 C 16.566406 -30.394531 17.453125 -29.789062 18.765625 -29.125 C 20.085938 -28.457031 22.023438 -27.601562 24.578125 -26.5625 C 27.046875 -25.550781 29.191406 -24.488281 31.015625 -23.375 C 32.835938 -22.269531 34.242188 -20.90625 35.234375 -19.28125 C 36.222656 -17.65625 36.71875 -15.550781 36.71875 -12.96875 Z M 36.71875 -12.96875 "/></g></g></g><g fill="#05f1c7" fill-opacity="1"><g transform="translate(200.578495, 440.015153)"><g><path d="M 36.71875 -12.96875 C 36.71875 -10 36.019531 -7.492188 34.625 -5.453125 C 33.238281 -3.410156 31.164062 -1.859375 28.40625 -0.796875 C 25.644531 0.253906 22.207031 0.78125 18.09375 0.78125 C 15.039062 0.78125 12.425781 0.582031 10.25 0.1875 C 8.082031 -0.195312 5.890625 -0.847656 3.671875 -1.765625 L 3.671875 -11.609375 C 6.046875 -10.535156 8.59375 -9.65625 11.3125 -8.96875 C 14.03125 -8.28125 16.421875 -7.9375 18.484375 -7.9375 C 20.796875 -7.9375 22.453125 -8.28125 23.453125 -8.96875 C 24.460938 -9.65625 24.96875 -10.5625 24.96875 -11.6875 C 24.96875 -12.414062 24.765625 -13.070312 24.359375 -13.65625 C 23.953125 -14.238281 23.082031 -14.898438 21.75 -15.640625 C 20.425781 -16.390625 18.347656 -17.363281 15.515625 -18.5625 C 12.773438 -19.707031 10.523438 -20.863281 8.765625 -22.03125 C 7.015625 -23.207031 5.710938 -24.59375 4.859375 -26.1875 C 4.015625 -27.789062 3.59375 -29.832031 3.59375 -32.3125 C 3.59375 -36.34375 5.160156 -39.378906 8.296875 -41.421875 C 11.441406 -43.472656 15.644531 -44.5 20.90625 -44.5 C 23.613281 -44.5 26.195312 -44.222656 28.65625 -43.671875 C 31.113281 -43.128906 33.644531 -42.257812 36.25 -41.0625 L 32.65625 -32.46875 C 30.5 -33.40625 28.460938 -34.171875 26.546875 -34.765625 C 24.628906 -35.367188 22.679688 -35.671875 20.703125 -35.671875 C 18.960938 -35.671875 17.648438 -35.4375 16.765625 -34.96875 C 15.878906 -34.5 15.4375 -33.78125 15.4375 -32.8125 C 15.4375 -32.113281 15.660156 -31.488281 16.109375 -30.9375 C 16.566406 -30.394531 17.453125 -29.789062 18.765625 -29.125 C 20.085938 -28.457031 22.023438 -27.601562 24.578125 -26.5625 C 27.046875 -25.550781 29.191406 -24.488281 31.015625 -23.375 C 32.835938 -22.269531 34.242188 -20.90625 35.234375 -19.28125 C 36.222656 -17.65625 36.71875 -15.550781 36.71875 -12.96875 Z M 36.71875 -12.96875 "/></g></g></g><g fill="#05f1c7" fill-opacity="1"><g transform="translate(240.340223, 440.015153)"><g><path d="M 30.390625 -34.734375 L 20.078125 -34.734375 L 20.078125 0 L 8.171875 0 L 8.171875 -34.734375 L 1.609375 -34.734375 L 1.609375 -40.46875 L 8.171875 -43.671875 L 8.171875 -46.875 C 8.171875 -50.601562 8.800781 -53.5 10.0625 -55.5625 C 11.320312 -57.632812 13.101562 -59.09375 15.40625 -59.9375 C 17.71875 -60.789062 20.445312 -61.21875 23.59375 -61.21875 C 25.914062 -61.21875 28.023438 -61.023438 29.921875 -60.640625 C 31.828125 -60.265625 33.378906 -59.84375 34.578125 -59.375 L 31.53125 -50.625 C 30.613281 -50.914062 29.617188 -51.175781 28.546875 -51.40625 C 27.484375 -51.644531 26.265625 -51.765625 24.890625 -51.765625 C 23.222656 -51.765625 22.003906 -51.257812 21.234375 -50.25 C 20.460938 -49.25 20.078125 -47.96875 20.078125 -46.40625 L 20.078125 -43.671875 L 30.390625 -43.671875 Z M 30.390625 -34.734375 "/></g></g></g><g fill="#05f1c7" fill-opacity="1"><g transform="translate(271.313748, 440.015153)"><g><path d="M 18.171875 -43.671875 L 18.171875 0 L 6.25 0 L 6.25 -43.671875 Z M 12.234375 -60.78125 C 14.003906 -60.78125 15.523438 -60.367188 16.796875 -59.546875 C 18.078125 -58.734375 18.71875 -57.207031 18.71875 -54.96875 C 18.71875 -52.75 18.078125 -51.21875 16.796875 -50.375 C 15.523438 -49.53125 14.003906 -49.109375 12.234375 -49.109375 C 10.429688 -49.109375 8.898438 -49.53125 7.640625 -50.375 C 6.378906 -51.21875 5.75 -52.75 5.75 -54.96875 C 5.75 -57.207031 6.378906 -58.734375 7.640625 -59.546875 C 8.898438 -60.367188 10.429688 -60.78125 12.234375 -60.78125 Z M 12.234375 -60.78125 "/></g></g></g><g fill="#05f1c7" fill-opacity="1"><g transform="translate(295.725413, 440.015153)"><g><path d="M 36.71875 -12.96875 C 36.71875 -10 36.019531 -7.492188 34.625 -5.453125 C 33.238281 -3.410156 31.164062 -1.859375 28.40625 -0.796875 C 25.644531 0.253906 22.207031 0.78125 18.09375 0.78125 C 15.039062 0.78125 12.425781 0.582031 10.25 0.1875 C 8.082031 -0.195312 5.890625 -0.847656 3.671875 -1.765625 L 3.671875 -11.609375 C 6.046875 -10.535156 8.59375 -9.65625 11.3125 -8.96875 C 14.03125 -8.28125 16.421875 -7.9375 18.484375 -7.9375 C 20.796875 -7.9375 22.453125 -8.28125 23.453125 -8.96875 C 24.460938 -9.65625 24.96875 -10.5625 24.96875 -11.6875 C 24.96875 -12.414062 24.765625 -13.070312 24.359375 -13.65625 C 23.953125 -14.238281 23.082031 -14.898438 21.75 -15.640625 C 20.425781 -16.390625 18.347656 -17.363281 15.515625 -18.5625 C 12.773438 -19.707031 10.523438 -20.863281 8.765625 -22.03125 C 7.015625 -23.207031 5.710938 -24.59375 4.859375 -26.1875 C 4.015625 -27.789062 3.59375 -29.832031 3.59375 -32.3125 C 3.59375 -36.34375 5.160156 -39.378906 8.296875 -41.421875 C 11.441406 -43.472656 15.644531 -44.5 20.90625 -44.5 C 23.613281 -44.5 26.195312 -44.222656 28.65625 -43.671875 C 31.113281 -43.128906 33.644531 -42.257812 36.25 -41.0625 L 32.65625 -32.46875 C 30.5 -33.40625 28.460938 -34.171875 26.546875 -34.765625 C 24.628906 -35.367188 22.679688 -35.671875 20.703125 -35.671875 C 18.960938 -35.671875 17.648438 -35.4375 16.765625 -34.96875 C 15.878906 -34.5 15.4375 -33.78125 15.4375 -32.8125 C 15.4375 -32.113281 15.660156 -31.488281 16.109375 -30.9375 C 16.566406 -30.394531 17.453125 -29.789062 18.765625 -29.125 C 20.085938 -28.457031 22.023438 -27.601562 24.578125 -26.5625 C 27.046875 -25.550781 29.191406 -24.488281 31.015625 -23.375 C 32.835938 -22.269531 34.242188 -20.90625 35.234375 -19.28125 C 36.222656 -17.65625 36.71875 -15.550781 36.71875 -12.96875 Z M 36.71875 -12.96875 "/></g></g></g><g fill="#05f1c7" fill-opacity="1"><g transform="translate(335.487153, 440.015153)"><g><path d="M 18.171875 -60.78125 L 18.171875 -48.40625 C 18.171875 -46.238281 18.097656 -44.175781 17.953125 -42.21875 C 17.804688 -40.269531 17.695312 -38.894531 17.625 -38.09375 L 18.25 -38.09375 C 19.1875 -39.601562 20.296875 -40.828125 21.578125 -41.765625 C 22.867188 -42.703125 24.296875 -43.390625 25.859375 -43.828125 C 27.421875 -44.273438 29.101562 -44.5 30.90625 -44.5 C 34.050781 -44.5 36.796875 -43.941406 39.140625 -42.828125 C 41.484375 -41.722656 43.304688 -39.992188 44.609375 -37.640625 C 45.910156 -35.285156 46.5625 -32.234375 46.5625 -28.484375 L 46.5625 0 L 34.65625 0 L 34.65625 -25.515625 C 34.65625 -28.640625 34.082031 -30.992188 32.9375 -32.578125 C 31.789062 -34.171875 30.019531 -34.96875 27.625 -34.96875 C 25.226562 -34.96875 23.335938 -34.410156 21.953125 -33.296875 C 20.578125 -32.191406 19.601562 -30.566406 19.03125 -28.421875 C 18.457031 -26.273438 18.171875 -23.648438 18.171875 -20.546875 L 18.171875 0 L 6.25 0 L 6.25 -60.78125 Z M 18.171875 -60.78125 "/></g></g></g><g fill="#ffffff" fill-opacity="1"><g transform="translate(30.16546, 572.015146)"><g><path d="M 25.4375 -57.109375 C 32.800781 -57.109375 38.175781 -55.523438 41.5625 -52.359375 C 44.945312 -49.203125 46.640625 -44.847656 46.640625 -39.296875 C 46.640625 -36.796875 46.257812 -34.40625 45.5 -32.125 C 44.75 -29.851562 43.519531 -27.832031 41.8125 -26.0625 C 40.113281 -24.289062 37.84375 -22.890625 35 -21.859375 C 32.164062 -20.828125 28.664062 -20.3125 24.5 -20.3125 L 19.296875 -20.3125 L 19.296875 0 L 7.1875 0 L 7.1875 -57.109375 Z M 24.8125 -47.1875 L 19.296875 -47.1875 L 19.296875 -30.234375 L 23.28125 -30.234375 C 25.550781 -30.234375 27.519531 -30.53125 29.1875 -31.125 C 30.851562 -31.726562 32.140625 -32.664062 33.046875 -33.9375 C 33.960938 -35.21875 34.421875 -36.863281 34.421875 -38.875 C 34.421875 -41.6875 33.640625 -43.773438 32.078125 -45.140625 C 30.515625 -46.503906 28.09375 -47.1875 24.8125 -47.1875 Z M 24.8125 -47.1875 "/></g></g></g><g fill="#ffffff" fill-opacity="1"><g transform="translate(80.394927, 572.015146)"><g><path d="M 0 -43.671875 L 13.046875 -43.671875 L 21.296875 -19.109375 C 21.554688 -18.328125 21.773438 -17.53125 21.953125 -16.71875 C 22.140625 -15.914062 22.296875 -15.082031 22.421875 -14.21875 C 22.554688 -13.363281 22.660156 -12.46875 22.734375 -11.53125 L 22.96875 -11.53125 C 23.125 -12.9375 23.335938 -14.25 23.609375 -15.46875 C 23.890625 -16.695312 24.238281 -17.910156 24.65625 -19.109375 L 32.734375 -43.671875 L 45.515625 -43.671875 L 27.03125 5.59375 C 25.914062 8.613281 24.457031 11.128906 22.65625 13.140625 C 20.863281 15.160156 18.800781 16.675781 16.46875 17.6875 C 14.132812 18.707031 11.578125 19.21875 8.796875 19.21875 C 7.441406 19.21875 6.269531 19.144531 5.28125 19 C 4.289062 18.863281 3.441406 18.71875 2.734375 18.5625 L 2.734375 9.109375 C 3.285156 9.234375 3.976562 9.347656 4.8125 9.453125 C 5.644531 9.554688 6.515625 9.609375 7.421875 9.609375 C 9.085938 9.609375 10.519531 9.253906 11.71875 8.546875 C 12.914062 7.847656 13.914062 6.90625 14.71875 5.71875 C 15.53125 4.539062 16.171875 3.25 16.640625 1.84375 L 17.34375 -0.3125 Z M 0 -43.671875 "/></g></g></g><g fill="#ffffff" fill-opacity="1"><g transform="translate(125.898293, 572.015146)"><g><path d="M 24.65625 -8.71875 C 25.957031 -8.71875 27.222656 -8.847656 28.453125 -9.109375 C 29.691406 -9.367188 30.925781 -9.691406 32.15625 -10.078125 L 32.15625 -1.21875 C 30.875 -0.644531 29.289062 -0.171875 27.40625 0.203125 C 25.519531 0.585938 23.457031 0.78125 21.21875 0.78125 C 18.613281 0.78125 16.273438 0.359375 14.203125 -0.484375 C 12.128906 -1.335938 10.5 -2.8125 9.3125 -4.90625 C 8.132812 -7 7.546875 -9.921875 7.546875 -13.671875 L 7.546875 -34.734375 L 1.84375 -34.734375 L 1.84375 -39.765625 L 8.40625 -43.75 L 11.84375 -52.96875 L 19.453125 -52.96875 L 19.453125 -43.671875 L 31.6875 -43.671875 L 31.6875 -34.734375 L 19.453125 -34.734375 L 19.453125 -13.671875 C 19.453125 -12.003906 19.925781 -10.757812 20.875 -9.9375 C 21.832031 -9.125 23.09375 -8.71875 24.65625 -8.71875 Z M 24.65625 -8.71875 "/></g></g></g><g fill="#ffffff" fill-opacity="1"><g transform="translate(160.621463, 572.015146)"><g><path d="M 18.171875 -60.78125 L 18.171875 -48.40625 C 18.171875 -46.238281 18.097656 -44.175781 17.953125 -42.21875 C 17.804688 -40.269531 17.695312 -38.894531 17.625 -38.09375 L 18.25 -38.09375 C 19.1875 -39.601562 20.296875 -40.828125 21.578125 -41.765625 C 22.867188 -42.703125 24.296875 -43.390625 25.859375 -43.828125 C 27.421875 -44.273438 29.101562 -44.5 30.90625 -44.5 C 34.050781 -44.5 36.796875 -43.941406 39.140625 -42.828125 C 41.484375 -41.722656 43.304688 -39.992188 44.609375 -37.640625 C 45.910156 -35.285156 46.5625 -32.234375 46.5625 -28.484375 L 46.5625 0 L 34.65625 0 L 34.65625 -25.515625 C 34.65625 -28.640625 34.082031 -30.992188 32.9375 -32.578125 C 31.789062 -34.171875 30.019531 -34.96875 27.625 -34.96875 C 25.226562 -34.96875 23.335938 -34.410156 21.953125 -33.296875 C 20.578125 -32.191406 19.601562 -30.566406 19.03125 -28.421875 C 18.457031 -26.273438 18.171875 -23.648438 18.171875 -20.546875 L 18.171875 0 L 6.25 0 L 6.25 -60.78125 Z M 18.171875 -60.78125 "/></g></g></g><g fill="#ffffff" fill-opacity="1"><g transform="translate(213.194451, 572.015146)"><g><path d="M 45.9375 -21.921875 C 45.9375 -18.273438 45.445312 -15.046875 44.46875 -12.234375 C 43.5 -9.421875 42.082031 -7.039062 40.21875 -5.09375 C 38.351562 -3.15625 36.113281 -1.691406 33.5 -0.703125 C 30.882812 0.285156 27.9375 0.78125 24.65625 0.78125 C 21.582031 0.78125 18.757812 0.285156 16.1875 -0.703125 C 13.625 -1.691406 11.398438 -3.15625 9.515625 -5.09375 C 7.628906 -7.039062 6.171875 -9.421875 5.140625 -12.234375 C 4.109375 -15.046875 3.59375 -18.273438 3.59375 -21.921875 C 3.59375 -26.765625 4.453125 -30.863281 6.171875 -34.21875 C 7.890625 -37.582031 10.335938 -40.132812 13.515625 -41.875 C 16.691406 -43.625 20.484375 -44.5 24.890625 -44.5 C 28.972656 -44.5 32.597656 -43.625 35.765625 -41.875 C 38.929688 -40.132812 41.414062 -37.582031 43.21875 -34.21875 C 45.03125 -30.863281 45.9375 -26.765625 45.9375 -21.921875 Z M 15.75 -21.921875 C 15.75 -19.054688 16.0625 -16.644531 16.6875 -14.6875 C 17.3125 -12.738281 18.285156 -11.269531 19.609375 -10.28125 C 20.941406 -9.289062 22.675781 -8.796875 24.8125 -8.796875 C 26.914062 -8.796875 28.625 -9.289062 29.9375 -10.28125 C 31.257812 -11.269531 32.222656 -12.738281 32.828125 -14.6875 C 33.441406 -16.644531 33.75 -19.054688 33.75 -21.921875 C 33.75 -24.804688 33.441406 -27.207031 32.828125 -29.125 C 32.222656 -31.039062 31.253906 -32.476562 29.921875 -33.4375 C 28.597656 -34.40625 26.867188 -34.890625 24.734375 -34.890625 C 21.578125 -34.890625 19.289062 -33.804688 17.875 -31.640625 C 16.457031 -29.484375 15.75 -26.242188 15.75 -21.921875 Z M 15.75 -21.921875 "/></g></g></g><g fill="#ffffff" fill-opacity="1"><g transform="translate(262.720861, 572.015146)"><g><path d="M 31.0625 -44.5 C 35.71875 -44.5 39.460938 -43.226562 42.296875 -40.6875 C 45.140625 -38.144531 46.5625 -34.078125 46.5625 -28.484375 L 46.5625 0 L 34.65625 0 L 34.65625 -25.515625 C 34.65625 -28.640625 34.085938 -30.992188 32.953125 -32.578125 C 31.816406 -34.171875 30.039062 -34.96875 27.625 -34.96875 C 23.976562 -34.96875 21.488281 -33.726562 20.15625 -31.25 C 18.832031 -28.78125 18.171875 -25.210938 18.171875 -20.546875 L 18.171875 0 L 6.25 0 L 6.25 -43.671875 L 15.359375 -43.671875 L 16.953125 -38.09375 L 17.625 -38.09375 C 18.5625 -39.601562 19.722656 -40.828125 21.109375 -41.765625 C 22.503906 -42.703125 24.054688 -43.390625 25.765625 -43.828125 C 27.472656 -44.273438 29.238281 -44.5 31.0625 -44.5 Z M 31.0625 -44.5 "/></g></g></g><path fill="#a531b4" d="M 837.648438 150.914062 L 837.648438 399.570312 C 837.648438 408.398438 832.332031 418.609375 825.738281 422.332031 L 457.328125 635.035156 C 450.734375 638.867188 445.417969 634.824219 445.417969 625.996094 L 445.417969 377.34375 C 445.417969 368.515625 450.734375 358.304688 457.328125 354.582031 L 825.738281 141.875 C 832.226562 138.046875 837.648438 142.089844 837.648438 150.914062 Z M 837.648438 150.914062 " fill-opacity="1" fill-rule="nonzero"/><path fill="#0e073f" d="M 834.035156 140.175781 C 831.480469 138.683594 828.292969 138.898438 824.992188 140.8125 L 456.585938 353.519531 C 449.777344 357.453125 444.140625 368.195312 444.140625 377.34375 L 444.140625 625.996094 C 444.140625 631.101562 445.84375 634.929688 448.820312 636.738281 C 449.886719 637.375 451.160156 637.695312 452.4375 637.695312 C 454.140625 637.695312 455.949219 637.164062 457.753906 636.101562 L 826.164062 423.394531 C 833.078125 419.351562 838.714844 408.71875 838.714844 399.570312 L 838.714844 150.914062 C 838.820312 145.8125 837.117188 141.875 834.035156 140.175781 Z M 825.101562 421.265625 L 456.691406 633.972656 C 454.246094 635.355469 451.90625 635.675781 450.097656 634.613281 C 447.863281 633.335938 446.589844 630.144531 446.589844 625.996094 L 446.589844 386.382812 L 836.375 161.339844 L 836.375 399.570312 C 836.375 407.867188 831.269531 417.652344 825.101562 421.265625 Z M 825.101562 421.265625 " fill-opacity="1" fill-rule="nonzero"/><path fill="#a531b4" d="M 455.414062 369.046875 C 455.414062 370.535156 455.839844 371.597656 456.691406 372.132812 C 457.542969 372.558594 458.710938 372.449219 459.988281 371.707031 C 463.074219 369.898438 465.730469 365.324219 465.730469 361.816406 C 465.730469 360.324219 465.304688 359.261719 464.457031 358.730469 C 464.136719 358.519531 463.816406 358.519531 463.390625 358.519531 C 462.753906 358.519531 461.902344 358.730469 461.160156 359.261719 C 458.074219 360.859375 455.414062 365.429688 455.414062 369.046875 Z M 455.414062 369.046875 " fill-opacity="1" fill-rule="nonzero"/><path fill="#05f1c7" d="M 472.75 358.945312 C 472.75 360.433594 473.175781 361.496094 474.027344 362.027344 C 474.878906 362.453125 476.046875 362.347656 477.324219 361.601562 C 480.410156 359.792969 483.066406 355.222656 483.066406 351.710938 C 483.066406 350.222656 482.640625 349.160156 481.792969 348.628906 C 481.472656 348.414062 481.152344 348.414062 480.726562 348.414062 C 480.089844 348.414062 479.238281 348.628906 478.496094 349.160156 C 475.410156 350.859375 472.75 355.433594 472.75 358.945312 Z M 472.75 358.945312 " fill-opacity="1" fill-rule="nonzero"/><path fill="#ffffff" d="M 490.511719 348.734375 C 490.511719 350.222656 490.9375 351.285156 491.789062 351.816406 C 492.640625 352.242188 493.808594 352.136719 495.085938 351.390625 C 498.167969 349.585938 500.828125 345.011719 500.828125 341.5 C 500.828125 340.011719 500.402344 338.949219 499.550781 338.417969 C 499.234375 338.203125 498.914062 338.203125 498.488281 338.203125 C 497.851562 338.203125 497 338.417969 496.253906 338.949219 C 493.171875 340.542969 490.511719 345.117188 490.511719 348.734375 Z M 490.511719 348.734375 " fill-opacity="1" fill-rule="nonzero"/><path fill="#05f1c7" d="M 866.257812 167.082031 L 866.257812 415.734375 C 866.257812 424.5625 860.941406 434.773438 854.347656 438.496094 L 485.9375 651.203125 C 479.34375 655.03125 474.027344 650.988281 474.027344 642.164062 L 474.027344 393.507812 C 474.027344 384.679688 479.34375 374.472656 485.9375 370.75 L 854.347656 158.042969 C 860.941406 154.214844 866.257812 158.253906 866.257812 167.082031 Z M 866.257812 167.082031 " fill-opacity="1" fill-rule="nonzero"/><path fill="#0e073f" d="M 862.75 156.339844 C 860.195312 154.851562 857.007812 155.0625 853.710938 156.976562 L 485.300781 369.683594 C 478.386719 373.726562 472.75 384.363281 472.75 393.507812 L 472.75 642.164062 C 472.75 647.269531 474.453125 651.097656 477.429688 652.90625 C 478.496094 653.542969 479.769531 653.863281 481.046875 653.863281 C 482.75 653.863281 484.554688 653.328125 486.363281 652.265625 L 854.773438 439.558594 C 861.6875 435.519531 867.324219 424.882812 867.324219 415.734375 L 867.324219 167.082031 C 867.535156 161.976562 865.726562 158.148438 862.75 156.339844 Z M 865.089844 177.503906 L 865.089844 180.269531 L 475.199219 570.160156 L 475.199219 563.460938 L 499.550781 539.105469 L 535.820312 502.839844 L 586.65625 452.003906 L 622.921875 415.734375 L 673.867188 364.6875 L 710.132812 328.421875 L 723.53125 315.019531 L 760.96875 277.582031 L 797.34375 241.316406 L 848.179688 190.480469 L 855.730469 182.820312 Z M 833.394531 291.835938 L 476.792969 648.4375 C 475.941406 647.054688 475.515625 645.246094 475.410156 643.121094 L 492.53125 625.996094 L 536.136719 582.390625 L 579.742188 538.789062 L 754.164062 364.367188 L 797.765625 320.761719 L 841.371094 277.15625 L 865.515625 253.015625 L 865.515625 259.714844 Z M 826.164062 291.835938 L 811.59375 306.40625 L 738.953125 379.042969 L 724.382812 393.613281 L 651.746094 466.253906 L 637.386719 480.613281 L 564.746094 553.25 L 550.175781 567.820312 L 477.539062 640.460938 L 475.199219 642.800781 C 475.199219 642.589844 475.199219 642.375 475.199219 642.164062 L 475.199219 635.996094 L 485.089844 626.101562 L 864.875 246.316406 L 864.875 253.015625 Z M 818.933594 291.835938 L 811.699219 299.066406 L 724.597656 386.167969 L 644.726562 466.042969 L 637.492188 473.273438 L 475.410156 635.355469 L 475.410156 628.65625 L 865.195312 238.871094 L 865.195312 245.570312 Z M 811.59375 291.835938 L 724.488281 378.9375 L 637.386719 466.042969 L 550.28125 553.144531 L 475.304688 628.125 L 475.304688 621.421875 L 536.03125 560.695312 L 557.835938 538.894531 L 623.136719 473.59375 L 644.9375 451.789062 L 710.238281 386.488281 L 732.042969 364.6875 L 797.34375 299.386719 L 819.144531 277.582031 L 865.089844 231.636719 L 865.089844 238.339844 Z M 804.363281 291.835938 L 717.257812 378.9375 L 630.15625 466.042969 L 543.050781 553.144531 L 475.199219 621 L 475.199219 614.296875 L 811.699219 277.796875 L 864.875 224.617188 L 864.875 231.320312 Z M 797.128906 291.835938 L 622.816406 466.148438 L 535.710938 553.25 L 475.304688 613.660156 L 475.304688 606.960938 L 536.03125 546.230469 L 623.136719 459.128906 L 630.367188 451.894531 L 710.238281 372.023438 L 797.34375 284.921875 L 865.089844 217.175781 L 865.089844 223.875 Z M 811.59375 270.03125 L 789.792969 291.835938 L 724.488281 357.242188 L 637.386719 444.34375 L 615.585938 466.148438 L 550.28125 531.449219 L 528.480469 553.25 L 475.304688 606.429688 L 475.304688 599.726562 L 865.195312 209.835938 L 865.195312 216.535156 Z M 811.59375 262.800781 L 782.558594 291.835938 L 724.488281 349.902344 L 695.457031 378.9375 L 608.351562 466.042969 L 550.175781 524.214844 L 521.140625 553.25 L 475.199219 599.195312 L 475.199219 592.496094 L 528.691406 539 L 535.925781 531.769531 L 615.796875 451.894531 L 702.898438 364.792969 L 710.132812 357.5625 L 724.277344 343.414062 L 724.703125 342.992188 L 790.003906 277.6875 L 797.234375 270.457031 L 864.984375 202.710938 L 864.984375 209.410156 Z M 862.429688 204.730469 L 811.59375 255.566406 L 775.328125 291.835938 L 724.488281 342.671875 L 637.386719 429.773438 L 601.121094 466.042969 L 550.28125 516.878906 L 514.015625 553.144531 L 475.304688 591.859375 L 475.304688 585.15625 L 623.242188 437.21875 L 695.882812 364.582031 L 710.453125 350.007812 L 865.300781 195.160156 L 865.300781 201.859375 Z M 855.199219 204.730469 L 680.777344 379.152344 L 637.171875 422.753906 L 593.570312 466.359375 L 474.984375 584.945312 L 474.984375 578.246094 L 513.910156 539.320312 L 535.710938 517.515625 L 601.011719 452.214844 L 622.816406 430.414062 L 688.117188 365.113281 L 709.917969 343.308594 L 723.746094 329.484375 L 724.488281 328.738281 L 775.328125 277.902344 L 797.128906 256.101562 L 862.429688 190.796875 L 864.769531 188.457031 L 864.769531 195.160156 Z M 847.964844 204.730469 L 811.699219 240.996094 L 760.863281 291.835938 L 724.597656 328.101562 L 673.757812 378.9375 L 637.492188 415.203125 L 586.65625 466.042969 L 550.390625 502.308594 L 499.550781 553.144531 L 475.199219 577.394531 L 475.199219 570.691406 L 864.984375 180.90625 L 864.984375 187.609375 Z M 833.394531 204.730469 L 811.59375 226.535156 L 746.292969 291.835938 L 724.488281 313.636719 L 659.1875 378.9375 L 637.386719 400.742188 L 572.085938 466.042969 L 550.28125 487.84375 L 475.410156 562.714844 L 475.410156 556.121094 L 623.347656 408.183594 L 666.953125 364.582031 L 754.164062 277.371094 L 797.765625 233.765625 L 839.03125 192.5 L 854.984375 183.246094 Z M 476.578125 401.804688 L 475.199219 403.1875 L 475.199219 402.65625 Z M 477.75 401.058594 L 493.703125 391.808594 L 475.199219 410.417969 L 475.199219 403.71875 Z M 494.980469 391.167969 L 510.933594 381.914062 L 475.199219 417.652344 L 475.199219 410.949219 Z M 512.207031 381.277344 L 528.160156 372.023438 L 521.25 378.9375 L 475.304688 424.882812 L 475.304688 418.183594 Z M 529.332031 371.28125 L 545.285156 362.027344 L 475.199219 432.113281 L 475.199219 425.414062 Z M 535.925781 372.023438 L 546.453125 361.496094 L 562.40625 352.242188 L 535.605469 379.042969 L 475.199219 439.453125 L 475.199219 432.753906 Z M 550.496094 364.6875 L 563.683594 351.5 L 579.636719 342.246094 L 475.199219 446.683594 L 475.199219 439.984375 Z M 535.925781 386.488281 L 580.914062 341.5 L 596.867188 332.25 L 550.28125 378.832031 L 475.304688 453.8125 L 475.304688 447.109375 Z M 477.855469 451.894531 L 535.925781 393.828125 L 598.035156 331.71875 L 613.988281 322.464844 L 475.199219 461.253906 L 475.199219 454.554688 Z M 485.089844 451.894531 L 615.160156 321.824219 L 631.113281 312.574219 L 564.640625 379.042969 L 475.089844 468.59375 L 475.089844 461.894531 Z M 492.425781 451.894531 L 536.03125 408.292969 L 632.601562 311.722656 L 648.554688 302.46875 L 475.410156 475.613281 L 475.410156 468.914062 Z M 499.660156 451.894531 L 649.511719 302.042969 L 665.464844 292.792969 L 637.28125 320.976562 L 579.210938 378.9375 L 550.175781 407.972656 L 492.109375 466.042969 L 475.199219 482.953125 L 475.199219 476.25 Z M 506.890625 451.894531 L 535.925781 422.863281 L 593.996094 364.792969 L 623.027344 335.757812 L 666.738281 292.046875 L 682.691406 282.792969 L 673.652344 291.835938 L 586.550781 378.9375 L 550.28125 415.203125 L 499.445312 466.042969 L 475.304688 490.183594 L 475.304688 483.484375 Z M 514.121094 451.894531 L 535.925781 430.09375 L 683.863281 282.15625 L 699.816406 272.902344 L 680.777344 291.941406 L 637.175781 335.546875 L 593.570312 379.152344 L 549.964844 422.753906 L 474.984375 497.734375 L 474.984375 491.035156 Z M 521.460938 451.894531 L 536.03125 437.324219 L 608.671875 364.6875 L 695.882812 277.476562 L 701.304688 272.050781 L 717.257812 262.800781 L 688.328125 291.726562 L 637.492188 342.566406 L 550.390625 429.667969 L 514.121094 465.933594 L 475.410156 504.648438 L 475.410156 497.949219 Z M 528.691406 451.894531 L 535.925781 444.664062 L 623.027344 357.5625 L 702.898438 277.6875 L 710.132812 270.457031 L 718.214844 262.375 L 734.167969 253.121094 L 521.140625 466.148438 L 475.199219 512.09375 L 475.199219 505.390625 Z M 535.925781 451.894531 L 724.703125 263.117188 L 735.445312 252.378906 L 751.398438 243.125 L 724.488281 270.03125 L 702.6875 291.835938 L 637.386719 357.242188 L 615.585938 379.042969 L 550.28125 444.34375 L 528.480469 466.148438 L 475.304688 519.324219 L 475.304688 512.519531 Z M 535.925781 459.128906 L 543.15625 451.894531 L 623.027344 372.023438 L 710.132812 284.921875 L 752.671875 242.378906 L 768.625 233.128906 L 475.304688 526.449219 L 475.304688 519.75 Z M 550.496094 451.894531 L 769.796875 232.59375 L 785.75 223.34375 L 717.152344 291.941406 L 630.046875 379.042969 L 542.945312 466.148438 L 475.199219 533.789062 L 475.199219 527.089844 Z M 535.925781 473.59375 L 557.726562 451.789062 L 623.027344 386.488281 L 644.832031 364.6875 L 710.132812 299.386719 L 731.933594 277.582031 L 787.027344 222.492188 L 802.980469 213.238281 L 724.488281 291.726562 L 637.386719 378.832031 L 550.28125 465.933594 L 475.304688 540.914062 L 475.304688 534.214844 Z M 477.855469 539 L 804.148438 212.707031 L 820.101562 203.453125 L 818.824219 204.730469 L 811.59375 211.964844 L 731.722656 291.835938 L 724.488281 299.066406 L 637.386719 386.167969 L 557.515625 466.042969 L 550.28125 473.273438 L 475.304688 548.253906 L 475.304688 541.550781 Z M 485.089844 539 L 535.925781 488.164062 L 572.191406 451.894531 L 623.027344 401.058594 L 659.296875 364.792969 L 724.597656 299.492188 L 746.398438 277.6875 L 797.234375 226.851562 L 821.273438 202.816406 L 837.226562 193.5625 L 825.953125 204.835938 L 811.378906 219.40625 L 738.742188 292.046875 L 475.199219 555.589844 L 475.199219 548.890625 Z M 476.898438 648.863281 L 761.074219 364.6875 L 797.34375 328.421875 L 848.179688 277.582031 L 865.089844 260.671875 L 865.089844 267.375 L 840.734375 291.726562 L 811.699219 320.761719 L 753.632812 378.832031 L 724.597656 407.867188 L 666.421875 466.148438 L 637.386719 495.183594 L 579.210938 553.25 L 550.175781 582.285156 L 492.109375 640.355469 L 481.152344 651.308594 C 480.300781 651.308594 479.453125 651.097656 478.8125 650.671875 C 478.070312 650.351562 477.429688 649.714844 476.898438 648.863281 Z M 485.40625 650.140625 C 484.132812 650.882812 482.855469 651.308594 481.683594 651.414062 L 506.890625 626.101562 L 535.925781 597.070312 L 593.996094 539 L 623.027344 509.964844 L 681.097656 451.894531 L 710.132812 422.863281 L 797.34375 335.652344 L 855.410156 277.582031 L 864.984375 268.011719 L 864.984375 274.710938 L 760.757812 378.9375 L 724.488281 415.203125 L 673.652344 466.042969 L 586.550781 553.144531 L 550.28125 589.410156 L 499.445312 640.25 L 495.617188 644.078125 Z M 864.558594 420.414062 L 839.140625 445.835938 L 823.1875 455.085938 L 826.375 451.894531 L 865.089844 413.183594 L 865.089844 415.628906 C 865.089844 417.226562 864.875 418.820312 864.558594 420.414062 Z M 853.710938 437.433594 L 840.308594 445.195312 L 864.34375 421.160156 C 862.855469 427.96875 858.707031 434.5625 853.710938 437.433594 Z M 822.015625 455.726562 L 806.0625 464.976562 L 819.144531 451.894531 L 865.089844 405.953125 L 865.089844 412.652344 Z M 804.785156 465.722656 L 788.832031 474.976562 L 865.089844 398.71875 L 865.089844 405.417969 Z M 797.128906 466.148438 L 787.664062 475.613281 L 771.710938 484.867188 L 804.679688 451.894531 L 865.089844 391.488281 L 865.089844 398.1875 Z M 811.59375 444.34375 L 789.792969 466.148438 L 770.433594 485.503906 L 754.480469 494.757812 L 865.089844 384.148438 L 865.089844 390.847656 Z M 811.59375 437.113281 L 753.207031 495.5 L 737.253906 504.753906 L 790.109375 451.894531 L 797.34375 444.664062 L 865.089844 376.917969 L 865.089844 383.617188 Z M 862.429688 378.9375 L 811.59375 429.773438 L 775.328125 466.042969 L 736.082031 505.285156 L 720.128906 514.539062 L 865.089844 369.578125 L 865.089844 376.277344 Z M 855.199219 378.9375 L 718.746094 515.390625 L 702.792969 524.640625 L 710.132812 517.304688 L 723.957031 503.476562 L 724.703125 502.734375 L 775.539062 451.894531 L 797.34375 430.09375 L 864.984375 362.453125 L 864.984375 369.152344 Z M 847.964844 378.9375 L 811.699219 415.203125 L 760.863281 466.042969 L 724.597656 502.308594 L 701.835938 525.066406 L 685.882812 534.320312 L 797.554688 422.648438 L 855.625 364.582031 L 865.195312 355.007812 L 865.195312 361.707031 Z M 840.628906 378.9375 L 753.523438 466.042969 L 724.488281 495.074219 L 684.5 535.171875 L 668.546875 544.425781 L 710.132812 502.839844 L 723.53125 489.4375 L 724.703125 488.269531 L 761.074219 451.894531 L 797.34375 415.628906 L 865.089844 347.882812 L 865.089844 354.582031 Z M 833.394531 378.9375 L 811.59375 400.742188 L 746.292969 466.042969 L 724.488281 487.84375 L 667.378906 544.957031 L 651.425781 554.207031 L 865.300781 340.332031 L 865.300781 347.03125 Z M 826.164062 378.9375 L 650.148438 554.953125 L 634.195312 564.207031 L 724.703125 473.699219 L 746.503906 451.894531 L 797.34375 401.058594 L 864.984375 333.417969 L 864.984375 340.117188 Z M 818.933594 378.9375 L 811.699219 386.167969 L 731.828125 466.042969 L 644.726562 553.144531 L 637.492188 560.375 L 633.132812 564.738281 L 617.179688 573.988281 L 623.242188 567.929688 L 652.277344 538.894531 L 710.34375 480.824219 L 739.378906 451.789062 L 797.449219 393.722656 L 826.484375 364.6875 L 865.195312 325.972656 L 865.195312 332.675781 Z M 811.59375 378.9375 L 615.796875 574.734375 L 599.84375 583.988281 L 865.089844 318.742188 L 865.089844 325.441406 Z M 804.363281 378.9375 L 598.675781 584.625 L 582.722656 593.878906 L 637.707031 538.894531 L 724.808594 451.789062 L 811.914062 364.6875 L 865.089844 311.511719 L 865.089844 318.210938 Z M 797.128906 378.9375 L 710.027344 466.042969 L 622.816406 553.25 L 581.445312 594.621094 L 565.492188 603.875 L 623.136719 546.230469 L 717.46875 451.894531 L 724.488281 444.878906 L 865.089844 304.277344 L 865.089844 310.976562 Z M 811.59375 357.242188 L 789.792969 378.9375 L 724.488281 444.238281 L 702.6875 466.042969 L 615.585938 553.144531 L 564.320312 604.40625 L 548.367188 613.660156 L 623.136719 538.894531 L 710.238281 451.789062 L 724.808594 437.21875 L 797.449219 364.582031 L 865.195312 296.832031 L 865.195312 303.535156 Z M 811.59375 349.902344 L 724.488281 437.007812 L 695.457031 466.042969 L 637.386719 524.214844 L 550.28125 611.320312 L 547.199219 614.40625 L 531.246094 623.65625 L 615.902344 539 L 623.136719 531.769531 L 703.007812 451.894531 L 790.109375 364.792969 L 797.34375 357.5625 L 865.089844 289.8125 L 865.089844 296.515625 Z M 862.429688 291.835938 L 775.328125 378.9375 L 724.488281 429.773438 L 688.222656 466.042969 L 601.121094 553.144531 L 550.28125 603.980469 L 529.96875 624.296875 L 514.015625 633.546875 L 536.03125 611.53125 L 608.671875 538.894531 L 710.453125 437.113281 L 724.382812 423.179688 L 724.914062 422.648438 L 782.984375 364.582031 L 797.554688 350.007812 L 865.300781 282.261719 L 865.300781 288.960938 Z M 855.199219 291.835938 L 811.59375 335.4375 L 637.171875 509.859375 L 593.570312 553.464844 L 549.964844 597.070312 L 512.421875 634.503906 L 496.46875 643.757812 L 513.910156 626.316406 L 535.710938 604.511719 L 601.011719 539.210938 L 622.816406 517.410156 L 723.746094 416.480469 L 724.488281 415.734375 L 775.328125 364.898438 L 864.769531 275.457031 L 864.769531 282.15625 Z M 855.199219 291.835938 " fill-opacity="1" fill-rule="nonzero"/><path fill="#a531b4" d="M 484.132812 385.210938 C 484.132812 386.703125 484.554688 387.765625 485.40625 388.296875 C 486.257812 388.722656 487.429688 388.617188 488.703125 387.871094 C 491.789062 386.0625 494.449219 381.492188 494.449219 377.980469 C 494.449219 376.492188 494.023438 375.429688 493.171875 374.894531 C 492.851562 374.683594 492.53125 374.683594 492.109375 374.683594 C 491.46875 374.683594 490.617188 374.894531 489.875 375.429688 C 486.683594 377.023438 484.132812 381.597656 484.132812 385.210938 Z M 484.132812 385.210938 " fill-opacity="1" fill-rule="nonzero"/><path fill="#05f1c7" d="M 501.464844 375.214844 C 501.464844 376.703125 501.890625 377.769531 502.742188 378.300781 C 503.59375 378.726562 504.765625 378.617188 506.039062 377.875 C 509.125 376.066406 511.78125 371.492188 511.78125 367.984375 C 511.78125 366.496094 511.359375 365.429688 510.507812 364.898438 C 510.1875 364.6875 509.867188 364.6875 509.441406 364.6875 C 508.804688 364.6875 507.953125 364.898438 507.210938 365.429688 C 504.125 367.027344 501.464844 371.597656 501.464844 375.214844 Z M 501.464844 375.214844 " fill-opacity="1" fill-rule="nonzero"/><path fill="#ffffff" d="M 519.226562 364.898438 C 519.226562 366.386719 519.652344 367.453125 520.503906 367.984375 C 521.355469 368.410156 522.523438 368.300781 523.800781 367.558594 C 526.886719 365.75 529.542969 361.175781 529.542969 357.667969 C 529.542969 356.179688 529.117188 355.113281 528.269531 354.582031 C 527.949219 354.371094 527.628906 354.371094 527.203125 354.371094 C 526.566406 354.371094 525.714844 354.582031 524.972656 355.113281 C 521.886719 356.816406 519.226562 361.28125 519.226562 364.898438 Z M 519.226562 364.898438 " fill-opacity="1" fill-rule="nonzero"/><path fill="#ffffff" d="M 883.0625 174.953125 L 514.65625 387.660156 C 508.0625 391.488281 502.742188 401.699219 502.742188 410.417969 L 502.742188 659.074219 C 502.742188 667.898438 508.0625 671.941406 514.65625 668.113281 L 883.0625 455.40625 C 889.65625 451.578125 894.976562 441.367188 894.976562 432.644531 L 894.976562 183.992188 C 894.976562 175.164062 889.65625 171.125 883.0625 174.953125 Z M 883.0625 174.953125 " fill-opacity="1" fill-rule="nonzero"/><path fill="#0e073f" d="M 891.464844 173.25 C 888.914062 171.761719 885.722656 171.972656 882.425781 173.886719 L 514.015625 386.59375 C 507.101562 390.636719 501.464844 401.273438 501.464844 410.417969 L 501.464844 659.074219 C 501.464844 664.179688 503.167969 668.007812 506.144531 669.816406 C 507.210938 670.453125 508.484375 670.773438 509.761719 670.773438 C 511.464844 670.773438 513.273438 670.238281 515.078125 669.175781 L 883.488281 456.46875 C 890.402344 452.429688 896.039062 441.792969 896.039062 432.644531 L 896.039062 183.992188 C 896.144531 178.886719 894.441406 175.058594 891.464844 173.25 Z M 882.425781 454.34375 L 514.015625 667.050781 C 511.570312 668.433594 509.230469 668.75 507.421875 667.6875 C 505.1875 666.410156 503.914062 663.222656 503.914062 659.074219 L 503.914062 419.457031 L 893.699219 194.414062 L 893.699219 432.644531 C 893.699219 440.941406 888.699219 450.726562 882.425781 454.34375 Z M 882.425781 454.34375 " fill-opacity="1" fill-rule="nonzero"/><path fill="#a531b4" d="M 512.738281 402.121094 C 512.738281 403.613281 513.164062 404.675781 514.015625 405.207031 C 514.867188 405.632812 516.039062 405.527344 517.3125 404.78125 C 520.398438 402.972656 523.054688 398.402344 523.054688 394.890625 C 523.054688 393.402344 522.632812 392.339844 521.78125 391.808594 C 521.460938 391.59375 521.140625 391.59375 520.714844 391.59375 C 520.078125 391.59375 519.226562 391.808594 518.484375 392.339844 C 515.398438 393.933594 512.738281 398.507812 512.738281 402.121094 Z M 512.738281 402.121094 " fill-opacity="1" fill-rule="nonzero"/><path fill="#05f1c7" d="M 530.074219 392.125 C 530.074219 393.613281 530.5 394.679688 531.351562 395.210938 C 532.203125 395.636719 533.371094 395.527344 534.648438 394.785156 C 537.734375 392.976562 540.390625 388.402344 540.390625 384.894531 C 540.390625 383.40625 539.964844 382.339844 539.117188 381.808594 C 538.796875 381.597656 538.476562 381.597656 538.050781 381.597656 C 537.414062 381.597656 536.5625 381.808594 535.820312 382.339844 C 532.734375 383.9375 530.074219 388.507812 530.074219 392.125 Z M 530.074219 392.125 " fill-opacity="1" fill-rule="nonzero"/><path fill="#ffffff" d="M 547.941406 381.808594 C 547.941406 383.296875 548.367188 384.363281 549.21875 384.894531 C 550.070312 385.320312 551.238281 385.210938 552.515625 384.46875 C 555.601562 382.660156 558.257812 378.085938 558.257812 374.578125 C 558.257812 373.089844 557.835938 372.023438 556.984375 371.492188 C 556.664062 371.28125 556.34375 371.28125 555.917969 371.28125 C 555.28125 371.28125 554.429688 371.492188 553.6875 372.023438 C 550.601562 373.726562 547.941406 378.195312 547.941406 381.808594 Z M 547.941406 381.808594 " fill-opacity="1" fill-rule="nonzero"/><path fill="#a531b4" d="M 721.085938 441.15625 L 565.597656 530.917969 L 565.597656 417.542969 L 721.085938 327.78125 Z M 721.085938 441.15625 " fill-opacity="1" fill-rule="nonzero"/><path fill="#05f1c7" d="M 832.121094 310.871094 L 736.933594 365.855469 L 736.933594 318.636719 L 832.121094 263.652344 Z M 832.121094 325.65625 L 736.933594 380.640625 L 736.933594 432.113281 L 832.121094 377.128906 Z M 832.121094 325.65625 " fill-opacity="1" fill-rule="nonzero"/><path fill="#0e073f" d="M 722.363281 441.792969 L 722.363281 325.65625 L 565.066406 416.480469 L 564.429688 416.800781 L 564.429688 532.9375 L 721.726562 442.21875 Z M 719.917969 440.410156 L 566.875 528.789062 L 566.875 418.289062 L 719.917969 329.910156 Z M 719.917969 440.410156 " fill-opacity="1" fill-rule="nonzero"/><path fill="#0e073f" d="M 736.296875 317.570312 L 735.65625 317.890625 L 735.65625 367.878906 L 832.652344 311.933594 L 833.289062 311.617188 L 833.289062 261.628906 Z M 830.84375 310.234375 L 738.101562 363.730469 L 738.101562 319.378906 L 830.84375 265.882812 Z M 830.84375 310.234375 " fill-opacity="1" fill-rule="nonzero"/><path fill="#0e073f" d="M 735.65625 379.894531 L 735.65625 434.136719 L 832.652344 378.195312 L 833.289062 377.875 L 833.289062 323.632812 L 736.296875 379.574219 Z M 738.101562 381.277344 L 830.84375 327.78125 L 830.84375 376.386719 L 738.101562 429.882812 Z M 738.101562 381.277344 " fill-opacity="1" fill-rule="nonzero"/><path fill="#0e073f" d="M 565.597656 562.398438 L 750.652344 455.511719 L 750.652344 449.023438 L 565.597656 555.804688 Z M 565.597656 562.398438 " fill-opacity="1" fill-rule="nonzero"/><path fill="#0e073f" d="M 565.597656 596.003906 L 750.652344 489.121094 L 750.652344 482.632812 L 565.597656 589.519531 Z M 565.597656 596.003906 " fill-opacity="1" fill-rule="nonzero"/><path fill="#0e073f" d="M 565.597656 612.808594 L 750.652344 506.03125 L 750.652344 499.4375 L 565.597656 606.320312 Z M 565.597656 612.808594 " fill-opacity="1" fill-rule="nonzero"/><path fill="#0e073f" d="M 565.597656 579.203125 L 750.652344 472.316406 L 750.652344 465.828125 L 565.597656 572.714844 Z M 565.597656 579.203125 " fill-opacity="1" fill-rule="nonzero"/><g clip-path="url(#2bb909c490)"><path fill="#ffffff" d="M 761.667969 670.933594 L 759.855469 670.933594 L 759.855469 663.675781 L 761.667969 663.675781 C 767.683594 663.675781 772.554688 668.550781 772.554688 674.5625 L 772.554688 687.261719 C 772.554688 688.40625 773.09375 689.480469 774.007812 690.167969 L 778.363281 693.433594 C 779.234375 694.085938 779.765625 695.097656 779.8125 696.183594 C 779.855469 697.273438 779.410156 698.324219 778.597656 699.046875 L 773.773438 703.332031 C 773 704.019531 772.554688 705.007812 772.554688 706.042969 L 772.554688 718.109375 C 772.554688 724.121094 767.683594 728.996094 761.667969 728.996094 L 759.855469 728.996094 L 759.855469 721.738281 L 761.667969 721.738281 C 763.675781 721.738281 765.296875 720.113281 765.296875 718.109375 L 765.296875 706.042969 C 765.296875 702.933594 766.628906 699.972656 768.953125 697.90625 L 770.453125 696.574219 L 769.652344 695.972656 C 766.914062 693.917969 765.296875 690.691406 765.296875 687.261719 L 765.296875 674.5625 C 765.296875 672.558594 763.675781 670.933594 761.667969 670.933594 Z M 761.667969 670.933594 " fill-opacity="1" fill-rule="evenodd"/></g><g clip-path="url(#b60a975723)"><path fill="#ffffff" d="M 747.152344 670.933594 L 748.96875 670.933594 L 748.96875 663.675781 L 747.152344 663.675781 C 741.140625 663.675781 736.265625 668.550781 736.265625 674.5625 L 736.265625 687.261719 C 736.265625 688.40625 735.730469 689.480469 734.816406 690.167969 L 730.460938 693.433594 C 729.589844 694.085938 729.058594 695.097656 729.011719 696.183594 C 728.96875 697.273438 729.414062 698.324219 730.226562 699.046875 L 735.050781 703.332031 C 735.824219 704.019531 736.265625 705.007812 736.265625 706.042969 L 736.265625 718.109375 C 736.265625 724.121094 741.140625 728.996094 747.152344 728.996094 L 748.96875 728.996094 L 748.96875 721.738281 L 747.152344 721.738281 C 745.148438 721.738281 743.523438 720.113281 743.523438 718.109375 L 743.523438 706.042969 C 743.523438 702.933594 742.195312 699.972656 739.871094 697.90625 L 738.371094 696.574219 L 739.171875 695.972656 C 741.910156 693.917969 743.523438 690.691406 743.523438 687.261719 L 743.523438 674.5625 C 743.523438 672.558594 745.148438 670.933594 747.152344 670.933594 Z M 747.152344 670.933594 " fill-opacity="1" fill-rule="evenodd"/></g><g clip-path="url(#628ba5f92e)"><path fill="#ffffff" d="M 62.835938 88.257812 L 61.019531 88.257812 L 61.019531 81 L 62.835938 81 C 68.847656 81 73.722656 85.875 73.722656 91.886719 L 73.722656 104.589844 C 73.722656 105.730469 74.261719 106.804688 75.171875 107.492188 L 79.527344 110.757812 C 80.398438 111.410156 80.933594 112.421875 80.976562 113.507812 C 81.023438 114.597656 80.574219 115.648438 79.761719 116.371094 L 74.941406 120.65625 C 74.164062 121.347656 73.722656 122.332031 73.722656 123.371094 L 73.722656 135.433594 C 73.722656 141.445312 68.847656 146.320312 62.835938 146.320312 L 61.019531 146.320312 L 61.019531 139.0625 L 62.835938 139.0625 C 64.839844 139.0625 66.464844 137.4375 66.464844 135.433594 L 66.464844 123.371094 C 66.464844 120.257812 67.792969 117.296875 70.121094 115.230469 L 71.621094 113.898438 L 70.820312 113.296875 C 68.078125 111.242188 66.464844 108.015625 66.464844 104.589844 L 66.464844 91.886719 C 66.464844 89.882812 64.839844 88.257812 62.835938 88.257812 Z M 62.835938 88.257812 " fill-opacity="1" fill-rule="evenodd"/></g><g clip-path="url(#4113d2b7bf)"><path fill="#ffffff" d="M 48.320312 88.257812 L 50.132812 88.257812 L 50.132812 81 L 48.320312 81 C 42.308594 81 37.433594 85.875 37.433594 91.886719 L 37.433594 104.589844 C 37.433594 105.730469 36.894531 106.804688 35.980469 107.492188 L 31.625 110.757812 C 30.753906 111.410156 30.222656 112.421875 30.179688 113.507812 C 30.132812 114.597656 30.578125 115.648438 31.394531 116.371094 L 36.214844 120.65625 C 36.988281 121.347656 37.433594 122.332031 37.433594 123.371094 L 37.433594 135.433594 C 37.433594 141.445312 42.308594 146.320312 48.320312 146.320312 L 50.132812 146.320312 L 50.132812 139.0625 L 48.320312 139.0625 C 46.316406 139.0625 44.691406 137.4375 44.691406 135.433594 L 44.691406 123.371094 C 44.691406 120.257812 43.359375 117.296875 41.035156 115.230469 L 39.535156 113.898438 L 40.335938 113.296875 C 43.078125 111.242188 44.691406 108.015625 44.691406 104.589844 L 44.691406 91.886719 C 44.691406 89.882812 46.316406 88.257812 48.320312 88.257812 Z M 48.320312 88.257812 " fill-opacity="1" fill-rule="evenodd"/></g></svg>